<svg width="1919" height="1280" viewBox="0 0 1919 1280" fill="none" xmlns="http://www.w3.org/2000/svg">
<g style="mix-blend-mode:color-dodge">
<path d="M0 1279.4C639.344 1276.69 1278.84 1275.49 1918.18 1279.4" stroke="#666666" stroke-miterlimit="10"/>
<path d="M0 1253.91C185.092 1241.54 373.023 1237.32 558.371 1247.09C634.075 1251.07 709.984 1253.04 785.714 1248.85C868.298 1244.27 946.918 1226.02 1028.4 1214.87C1173.31 1195.03 1320.25 1241.64 1464.55 1249.41C1616.54 1257.62 1765.8 1236.3 1918.18 1255.73" stroke="#666666" stroke-miterlimit="10"/>
<path d="M0 1225.43C192.253 1204.18 391.514 1200.29 584.228 1219.37C661.492 1227.01 739.396 1231.05 816.788 1222.95C908.12 1213.41 987.379 1178.28 1075.26 1156.83C1222.04 1121.01 1366.95 1207.99 1511.04 1222.13C1574.29 1228.34 1636.9 1214.77 1700 1210.7C1774.6 1205.87 1845.78 1213.56 1918.18 1232.05" stroke="#666666" stroke-miterlimit="10"/>
<path d="M0 1194.54C198.161 1165.83 401.898 1169.36 600.213 1195.97C678.244 1206.43 756.327 1212.18 834.538 1200.06C875.229 1193.75 914.923 1183.14 953.747 1169.46C1006.54 1150.87 1055.21 1116.71 1107.56 1099.63C1254.49 1051.69 1393.93 1174.01 1533.27 1195.87C1597.21 1205.89 1655.55 1185.11 1718.54 1177.92C1788.69 1169.92 1852.58 1183.62 1918.21 1208.4" stroke="#666666" stroke-miterlimit="10"/>
<path d="M0 1161.71C193.992 1127.73 392.179 1138.37 585.481 1172.76C669.37 1187.69 753.386 1197.53 837.786 1180.4C944.949 1158.64 1023.98 1094.23 1122.09 1053.07C1281.19 986.308 1407.9 1148.26 1556.31 1172.88C1614.91 1182.6 1663.22 1157.8 1719.31 1146.98C1791.3 1133.1 1853.5 1153.53 1918.18 1184.75" stroke="#666666" stroke-miterlimit="10"/>
<path d="M0 1127.47C194.146 1087.64 384.583 1111.21 575.864 1154.35C660.009 1173.32 744.383 1183.7 829.269 1162.71C873.336 1151.82 914.974 1134.05 955.179 1113.18C1015.36 1081.96 1068.61 1029.8 1128.99 1001.91C1291.3 926.912 1407.1 1116.02 1551.48 1147.42C1617.18 1161.71 1660.89 1130.31 1721.48 1114.89C1793.5 1096.59 1856.29 1126.12 1918.18 1161.07" stroke="#666666" stroke-miterlimit="10"/>
<path d="M0 1092.37C190.309 1047.19 364.864 1084.9 549.266 1135.09C634.893 1158.39 720.47 1172.48 807.658 1148.31C853.797 1135.53 896.738 1114.46 937.967 1090.45C1002.57 1052.84 1058.3 992.88 1123.34 958.771C1294.16 869.203 1395.47 1088.81 1543.09 1123.79C1612.48 1140.23 1653.12 1102.54 1714.91 1083.09C1789.69 1059.54 1856.16 1098.66 1918.16 1137.4" stroke="#666666" stroke-miterlimit="10"/>
<path d="M0 1056.88C181.742 1006.81 336.091 1056.26 508.319 1112.87C593.742 1140.95 678.935 1161.97 767.964 1138.95C903.414 1103.95 991.701 997.431 1105.54 925.659C1290.4 809.141 1372.78 1068.61 1534.06 1101.65C1603.88 1115.97 1643.37 1071.45 1705.09 1049.95C1783.25 1022.72 1855.4 1071.76 1918.18 1113.67" stroke="#666666" stroke-miterlimit="10"/>
<path d="M0 1021.57C176.345 964.626 311.743 1028.62 473.689 1092.06C561.133 1126.3 649.574 1154.07 742.746 1125.76C880.881 1083.8 970.908 969.51 1085.1 890.016C1279.25 754.884 1342.98 1043.63 1509.74 1077.59C1580.71 1092.04 1624.52 1042.64 1685.29 1018.53C1771.12 984.467 1849.92 1042.43 1918.18 1090.07" stroke="#666666" stroke-miterlimit="10"/>
<path d="M0 986.896C79.0036 956.802 156.115 949.873 237.829 974.163C313.278 996.587 378.061 1041.87 449.264 1073.91C533.357 1111.75 619.753 1144.94 711.774 1114.79C857.94 1066.9 945.921 936.858 1065.21 850.589C1258.35 710.88 1314.54 1008.68 1473.11 1048.85C1553.4 1069.18 1599.92 1010.24 1668.18 983.291C1760.43 946.856 1846.62 1014.87 1918.18 1066.39" stroke="#666666" stroke-miterlimit="10"/>
<path d="M0 953.427C71.1007 921.236 141.946 911.213 217.036 936.372C291.001 961.149 351.079 1013.31 419.213 1049.41C498.472 1091.42 580.033 1133.59 671.237 1106.69C824.154 1061.63 920.14 915.585 1038.81 821.082C1241.17 659.921 1274.75 984.007 1440.53 1021.31C1525.6 1040.46 1578.56 972.118 1651.61 945.475C1749.87 909.653 1844.12 987.919 1918.16 1042.69" stroke="#666666" stroke-miterlimit="10"/>
<path d="M0 921.645C164.324 833.432 263.021 937.779 396.859 1022.1C472.871 1070 554.713 1125.4 647.86 1094.57C798.706 1044.63 897.94 894.491 1012.29 794.644C1086.1 730.21 1156.77 715.252 1219.99 796.766C1274.83 867.439 1310.04 969.228 1407.61 989.709C1492.58 1007.53 1552.58 937.574 1625.47 909.065C1732.73 867.081 1838.92 958.873 1918.18 1019.04" stroke="#666666" stroke-miterlimit="10"/>
<path d="M0 892.087C159.158 792.087 258.341 895.922 383.867 990.169C450.824 1040.44 526.631 1110.06 617.093 1086.46C672.157 1072.09 720.982 1031.26 763.028 995.206C843.848 925.94 910.933 844.222 987.66 771.044C1061.22 700.882 1133.72 673.268 1196.79 765.828C1243.8 834.812 1279.86 941.384 1374.37 956.444C1464.21 970.762 1529.97 893.698 1608.77 867.055C1722.43 828.599 1837.01 931.949 1918.18 995.309" stroke="#666666" stroke-miterlimit="10"/>
<path d="M0 865.291C62.0469 820.673 130.513 792.675 206.115 819.855C273.431 844.068 325.759 900.32 377.499 947.188C435.811 1000.01 509.47 1093.8 598.985 1075.36C649.369 1064.98 693.692 1026.43 731.34 993.596C814.435 921.108 887.275 837.139 961.982 756.367C1031.91 680.734 1109.4 626.324 1174.62 731.591C1218.53 802.442 1252.63 914.511 1352.22 918.448C1440.61 921.951 1507.03 851.381 1586.7 825.352C1708.9 785.439 1832.86 902.749 1918.21 971.657" stroke="#666666" stroke-miterlimit="10"/>
<path d="M0 840.693C63.6837 791.09 134.631 758.157 215.067 786.743C282.945 810.855 339.161 865.828 389.34 915.252C441.515 966.671 511.541 1067.67 596.964 1050.44C644.766 1040.8 686.812 1002.16 722.056 970.814C802.645 899.093 874.615 817.323 947.429 737.983C1014.11 665.342 1092.42 599.118 1158.56 703.9C1201.83 772.45 1234.7 881.859 1332.42 883.215C1420.04 884.416 1493.11 820.826 1574.93 799.042C1702.27 765.112 1826.73 876.336 1918.18 947.393" stroke="#666666" stroke-miterlimit="10"/>
<path d="M0 813.283C70.2567 758.029 145.219 728.318 231.103 766.671C302.127 798.402 364.327 858.438 419.289 911.596C468.6 959.308 529.7 1039.82 607.451 1014.74C654.894 999.425 696.147 958.515 731.544 925.633C802.491 859.742 868.426 788.379 935.358 718.474C999.144 651.816 1076.54 586.973 1145.1 679.916C1193.88 746.037 1224.93 851.79 1322.29 856.623C1409.02 860.918 1492.88 803.721 1576.49 788.379C1702.94 765.163 1820.54 852.302 1918.21 919.446" stroke="#666666" stroke-miterlimit="10"/>
<path d="M0 782.831C75.5509 725.199 152.534 699.86 240.796 745.373C308.418 780.223 370.823 836.347 426.451 887.561C478.293 935.299 541.951 1017.55 620.29 981.144C661.185 962.146 694.843 925.966 726.966 895.36C794.537 830.926 858.451 762.606 924.437 696.587C992.699 628.293 1070.04 575.339 1140.86 666.134C1189.61 728.651 1224.72 827.065 1317.15 831.156C1402.19 834.941 1486.67 794.209 1569.66 780.658C1697.77 759.742 1811.51 825.045 1918.21 887.97" stroke="#666666" stroke-miterlimit="10"/>
<path d="M0 749.898C87.1367 687.05 170.258 672.833 263.047 731.31C329.723 773.319 391.361 830.236 451.029 881.552C500.851 924.406 556.887 991.678 626.607 952.711C663.947 931.847 695.022 894.644 724.767 864.549C788.092 800.448 849.756 734.787 914.923 672.527C982.443 608.016 1059.73 561.455 1131.6 642.969C1185.26 703.823 1222.42 800.883 1314.62 809.678C1395.88 817.426 1484.42 785.669 1564.34 773.294C1692.07 753.529 1804.45 798.658 1918.16 853.759" stroke="#666666" stroke-miterlimit="10"/>
<path d="M0 715.099C94.4002 651.611 181.204 644.81 275.809 711.238C347.191 761.353 411.335 824.687 479.214 879.609C525.889 917.349 577.527 969.1 635.865 925.736C674.434 897.073 705.917 853.887 737.938 818.704C792.082 759.256 847.582 700.601 907.148 646.549C980.141 580.299 1059.3 549.003 1132.8 628.855C1186.61 687.305 1227.84 778.535 1316.26 788.43C1399.94 797.789 1490.43 775.825 1573.32 764.447C1695.21 747.725 1803.71 774.956 1918.18 817.323" stroke="#666666" stroke-miterlimit="10"/>
<path d="M0 678.97C107.623 611.698 199.107 618.858 297.907 697.712C372.869 757.543 436.758 827.167 514.892 883.624C568.499 922.335 607.144 944.196 656.07 890.246C739.217 798.556 806.558 694.056 903.976 614.997C975.486 556.981 1054.16 535.349 1125.41 602.877C1185.62 659.921 1226.13 747.495 1313.04 768.052C1393.27 786.999 1493.96 768.308 1574.62 757.313C1693.68 741.077 1801.12 750.614 1918.21 779.456" stroke="#666666" stroke-miterlimit="10"/>
<path d="M0 642.125C120.513 571.836 218.647 594.669 320.26 684.646C393.049 749.105 453.587 823.741 536.196 876.694C596.837 915.585 628.755 922.463 670.239 860.535C735.969 762.427 802.133 662.146 897.889 589.786C975.307 531.258 1053.75 518.116 1129.4 585.592C1192.39 641.793 1237.23 732.204 1326.31 752.097C1405.31 769.74 1497.51 761.353 1577.16 750.512C1692.78 734.761 1801.41 727.653 1918.21 740.668" stroke="#666666" stroke-miterlimit="10"/>
<path d="M0 605.153C131.357 532.665 234.121 568.384 338.24 667.566C411.924 737.753 472.666 823.486 563.383 873.243C630.725 910.19 654.357 890.988 686.48 827.653C737.58 726.937 802.21 625.147 896.866 559.538C976.995 503.976 1058.04 502.263 1133.31 566.109C1198.97 621.823 1246.79 709.883 1334.75 734.582C1523.4 787.561 1728.69 708.374 1918.21 701.803" stroke="#666666" stroke-miterlimit="10"/>
<path d="M0 568.615C65.3461 533.815 126.779 513.156 199.9 538.494C260.387 559.461 309.927 603.465 354.301 648.287C427.499 722.284 490.083 821.849 587.604 865.828C660.75 898.812 678.065 854.373 702.746 792.368C742.977 691.218 803.719 587.587 898.631 528.369C1105.49 399.272 1180.14 660.484 1344.72 717.119C1536.93 783.266 1730.25 699.809 1918.21 663.424" stroke="#666666" stroke-miterlimit="10"/>
<path d="M0 533.099C68.1595 497.047 130.974 476.95 205.425 504.334C267.881 527.295 318.367 574.214 363.611 621.747C434.763 696.485 508.344 825.864 614.484 855.626C688.782 876.464 700.495 806.968 719.319 751.023C752.261 653.094 809.039 545.117 904.027 493.314C1101.22 385.771 1200.53 627.577 1349.4 695.922C1544.73 785.592 1733.86 693.647 1918.18 626.196" stroke="#666666" stroke-miterlimit="10"/>
<path d="M0 499.22C68.8244 461.788 130.82 441.46 206.576 467.975C269.39 489.965 320.72 539.031 365.376 586.845C437.832 664.447 515.506 811.852 628.167 833.841C704.741 848.799 715.483 772.322 732.209 714.894C760.931 616.377 812.645 507.326 911.905 461.506C1109.38 370.353 1215.87 602.493 1361.53 677.564C1437.36 716.633 1535.54 736.653 1620.02 723.051C1727.11 705.817 1825.04 642.381 1918.21 590.911" stroke="#666666" stroke-miterlimit="10"/>
<path d="M0 467.515C73.3002 425.147 144.145 400.729 225.297 437.344C286.193 464.83 334.506 515.355 378.164 564.396C443.586 637.881 526.043 792.701 636.095 804.309C718.935 813.053 729.396 722.616 747.146 661.558C774.588 567.183 824.001 466.007 923.465 429.596C1119.45 357.824 1232.78 573.038 1374.19 657.134C1445.65 699.63 1539.05 728.727 1622.63 718.321C1734.6 704.36 1831.51 623.358 1918.16 558.029" stroke="#666666" stroke-miterlimit="10"/>
<path d="M0 438.597C69.2081 394.516 137.342 363.833 219.108 396.843C284.633 423.306 336.808 479.481 381.821 531.974C446.17 607.019 527.091 761.097 641.415 763.808C722.925 765.725 738.015 673.984 757.248 612.721C786.993 518.065 834.026 426.247 938.35 399.476C1138.12 348.185 1249.04 544.963 1391.99 639.364C1461.96 685.592 1555.29 723.716 1640.53 711.417C1752.02 695.309 1841.58 602.672 1918.18 528.369" stroke="#666666" stroke-miterlimit="10"/>
<path d="M0 413.053C63.5303 367.004 129.516 328.42 210.31 355.472C273.277 376.541 322.869 428.139 365.248 477.078C434.661 557.211 504.482 699.757 623.973 708.86C714.818 715.764 738.424 627.5 764.563 557.671C800.215 462.401 849.909 381.731 959.092 366.978C1152.65 340.821 1264.19 507.198 1398.66 611.928C1466.08 664.421 1557.36 714.69 1645.57 706.099C1762.58 694.695 1848.69 585.925 1918.18 502.544" stroke="#666666" stroke-miterlimit="10"/>
<path d="M0 392.905C63.2233 348.799 128.416 312.491 207.599 338.264C269.262 358.336 318.342 407.658 360.209 455.114C427.653 531.514 499.035 678.177 615.098 682.192C704.843 685.286 735.56 605.817 767.734 535.963C808.988 446.446 864.82 364.498 970.703 350.205C1157.48 324.994 1274.16 480.427 1406.72 579.839C1471.76 628.599 1563.5 678.203 1647.03 676.567C1763.81 674.265 1850.31 563.22 1918.18 482.166" stroke="#666666" stroke-miterlimit="10"/>
<path d="M0 379.123C62.2259 336.551 126.472 301.24 204.095 324.713C264.07 342.841 312.434 389.019 353.636 434.224C420.006 507.07 491.081 652.199 603.384 652.89C691.441 653.427 728.936 583.368 767.376 515.124C814.333 431.77 875.971 351.79 978.095 337.778C1158.12 313.104 1279.74 452.506 1412.37 545.296C1476.77 590.348 1567.51 640.617 1647.21 647.725C1763.4 658.08 1851.3 545.935 1918.16 467.796" stroke="#666666" stroke-miterlimit="10"/>
<path d="M0 370.583C59.6939 329.801 123.505 294.541 198.059 313.462C261.615 329.571 312.101 377.615 355.376 424.125C421.156 494.823 487.116 626.145 597.016 621.261C680.162 617.579 722.542 554.475 765.969 492.368C819.295 416.07 883.669 344.529 981.317 330.67C1158.63 305.485 1282.86 425.991 1420.81 511.954C1484.55 551.688 1565.42 598.811 1638.85 617.809C1757.87 648.594 1848.52 537.088 1918.18 458.336" stroke="#666666" stroke-miterlimit="10"/>
<path d="M0 366.185C58.057 326.017 120.513 289.99 193.839 304.897C254.888 317.323 304.505 360.074 347.038 403.005C413.74 470.302 475.838 591.166 582.31 586.436C663.078 582.856 711.646 529.724 761.059 472.475C820.267 403.9 888.605 338.75 982.494 325.096C1152.32 300.397 1282.45 396.74 1422.01 473.396C1491.27 511.442 1564.11 557.952 1636.82 588.737C1753.89 638.315 1845.91 531.028 1918.16 452.762" stroke="#666666" stroke-miterlimit="10"/>
<path d="M0 364.83C122.15 278.254 227.804 278.689 338.726 381.348C406.834 444.375 464.712 552.557 567.45 548.875C645.584 546.063 699.907 503.005 754.972 452.455C819.857 392.905 891.342 335.298 981.496 321.9C1143.31 297.84 1280.32 367.515 1421.14 433.611C1498.66 469.995 1561.38 515.636 1633.58 559.896C1747.59 629.775 1840.66 530.005 1918.21 450.103" stroke="#666666" stroke-miterlimit="10"/>
<path d="M0 365.418C113.684 282.166 218.315 266.006 330.9 358.668C400.798 416.198 454.635 510.445 553.204 508.502C717.324 505.28 818.4 344.58 978.811 320.34C1132.47 297.124 1276.82 338.29 1418.15 392.828C1504.55 426.17 1558.95 473.396 1629.02 531.003C1738.95 621.363 1832.38 532.971 1918.18 449.182" stroke="#666666" stroke-miterlimit="10"/>
<path d="M0 366.85C103.966 287.638 207.778 254.091 321.334 332.562C391.54 381.067 443.024 462.12 533.741 465.239C696.863 470.89 818.246 343.148 974.796 318.729C1117.64 296.459 1270.3 308.809 1408.1 350.128C1506.21 379.558 1556.31 433.074 1625.47 504.513C1651.3 531.207 1680.35 559.001 1719.15 563.194C1796.34 571.504 1868.54 495.027 1918.18 449.105" stroke="#666666" stroke-miterlimit="10"/>
<path d="M0 368.026C96.7276 291.371 200.054 242.662 316.142 306.84C387.959 346.548 437.909 413.948 523.562 418.934C682.925 428.216 817.172 342.841 970.473 319.036C1107.99 297.686 1263.83 279.89 1401.17 309.346C1506.82 332 1554.34 395.181 1618.38 475.927C1642.91 506.866 1670.69 542.457 1711.22 552.174C1789.54 570.941 1866.8 493.8 1918.16 448.824" stroke="#666666" stroke-miterlimit="10"/>
<path d="M0 367.822C94.4002 290.092 199.312 229.929 320.848 281.782C387.115 310.062 436.425 361.89 510.16 369.1C668.628 384.621 812.722 342.509 967.455 319.803C1048.99 307.837 1129.32 295.973 1210.17 279.686C1273.01 267.029 1334.08 260.458 1397.97 269.612C1508.36 285.413 1554.98 364.268 1612.22 450.179C1635.14 484.57 1662.68 527.27 1704.32 540.949C1784.12 567.183 1863.71 492.521 1918.18 447.188" stroke="#666666" stroke-miterlimit="10"/>
<path d="M0 365.163C90.9219 287.893 195.885 216.3 320.158 249.412C386.041 266.978 439.213 307.837 507.679 316.479C663.871 336.167 808.579 340.642 964.642 318.908C1047.28 307.402 1124.75 290.45 1203.57 263.143C1264.26 242.125 1322.5 224.892 1387.56 229.494C1503.42 237.676 1550.48 330.824 1602.78 421.286C1625.06 459.819 1651.97 509.397 1695.14 528.139C1776.47 563.45 1860.28 489.249 1918.24 443.301" stroke="#666666" stroke-miterlimit="10"/>
<path d="M0 358.949C89.6431 280.964 194.197 201.317 319.953 213.386C387.473 219.855 449.264 251.765 516.298 261.634C669.523 284.212 804.307 335.733 961.701 316.531C1044.98 306.354 1119.81 284.621 1194.85 247.443C1251.37 219.445 1305.23 191.115 1369.99 190.297C1495.88 188.763 1543.42 298.684 1594.11 395.641C1616.01 437.523 1642.32 492.01 1686.93 514.46C1769.69 556.137 1856.96 482.729 1918.18 436.014" stroke="#666666" stroke-miterlimit="10"/>
<path d="M0 348.083C91.4846 267.566 196.32 182.728 323.304 174.342C391.77 169.816 463.843 190.169 530.467 203.976C680.316 235.017 805.075 329.443 964.207 312.261C1046.02 303.439 1118.28 276.822 1186.87 231.923C1242.22 195.692 1292.93 156.853 1361.65 152.838C1490.28 145.347 1537.39 273.012 1584.32 369.893C1606.62 415.891 1632.22 471.529 1678.21 498.76C1760.79 547.648 1856.01 470.404 1918.18 424.38" stroke="#666666" stroke-miterlimit="10"/>
<path d="M0 331.412C156.549 193.953 321.539 87.97 534.662 139.466C686.377 176.132 803.233 318.729 967.839 305.28C1051.24 298.453 1121.5 264.984 1184.95 211.979C1234.65 170.481 1278.92 124.968 1346.72 117.63C1476.03 103.644 1523.42 234.403 1567.74 331.156C1591.94 383.956 1618.13 450 1670.64 481.45C1755.29 532.153 1853.61 454.245 1918.16 407.3" stroke="#666666" stroke-miterlimit="10"/>
<path d="M0 308.758C150.641 180.095 344.429 37.7782 555.174 96.7913C703.104 138.213 814.87 295.948 977.456 287.612C1058.76 283.444 1127.84 244.503 1185.23 189.325C1230.76 145.577 1271.45 96.2288 1338.41 88.8138C1462.45 75.0321 1512.94 204.104 1556.64 295.871C1582.81 350.767 1610.23 417.962 1664.04 451.739C1750.2 505.817 1849.72 431.974 1918.16 384.314" stroke="#666666" stroke-miterlimit="10"/>
<path d="M0 285.081C151.178 161.89 349.647 25.8631 557.066 76.9498C709.524 114.485 830.292 271.018 995.359 260.304C1070.17 255.446 1132.85 219.113 1185.39 167.873C1227.31 126.988 1264.06 80.4016 1325.26 70.4042C1447.33 50.4604 1507.64 182.78 1555.01 270.532C1582.22 320.903 1611.73 379.277 1661.12 411.775C1747.49 468.614 1844.68 405.689 1918.18 358.387" stroke="#666666" stroke-miterlimit="10"/>
<path d="M0 261.404C154.043 142.56 362.179 11.1355 568.064 63.5006C717.759 101.573 845.894 244.452 1007.43 235.682C1076.31 231.949 1136.61 195.257 1184.77 148.568C1223.37 111.161 1257.71 66.5945 1313.16 54.8583C1433.32 29.4428 1502.42 162.785 1554.75 246.037C1586.21 296.076 1619.1 351.151 1673.12 379.456C1758.59 424.227 1843.61 374.802 1918.18 330.542" stroke="#666666" stroke-miterlimit="10"/>
<path d="M0 237.727C158.979 122.59 372.179 1.67489 577.859 52.6082C726.122 89.3251 859.705 221.619 1018.76 210.752C1082.83 206.38 1137.59 174.188 1183.37 131.156C1221.86 94.9759 1256.44 50.8695 1311.42 40.7186C1425.67 19.5987 1500.1 144.81 1555.85 222.386C1587.85 266.901 1621.76 312.312 1670.53 339.287C1755.39 386.18 1840.92 343.25 1918.18 301.112" stroke="#666666" stroke-miterlimit="10"/>
<path d="M0 214.05C160.079 106.277 366.629 2.23741 567.348 40.0538C722.695 69.3302 863.081 199.118 1026.23 187.689C1088.1 183.342 1140.78 151.79 1185.85 111.238C1222.7 78.0492 1256.18 39.7981 1307.26 30.1587C1412.99 10.1893 1491.71 118.039 1549.82 188.507C1587.85 234.659 1629.41 285.311 1686.31 308.911C1766.78 342.278 1845.98 306.635 1918.21 270.481" stroke="#666666" stroke-miterlimit="10"/>
<path d="M0 190.373C164.069 88.9672 374.89 -4.07812 573.742 33.9429C725.329 62.938 872.62 178.1 1031.16 166.415C1146.31 157.927 1196.56 45.0909 1300.35 22.2323C1404.7 -0.72859 1489.66 100.882 1553.81 166.646C1592.37 206.201 1632.63 247.75 1684.7 269.228C1765.32 302.468 1843.55 272.987 1918.16 238.98" stroke="#666666" stroke-miterlimit="10"/>
<path d="M0 166.697C168.391 72.5776 375.222 -3.82237 572.207 27.8575C725.022 52.4293 875.024 156.827 1033.26 144.989C1141.96 136.858 1200.07 35.4771 1300.4 15.8146C1398.23 -3.33655 1482.4 77.3334 1549.59 136.27C1591.07 172.68 1633.76 210.88 1686.01 231.105C1766.03 262.094 1842.58 238.315 1918.21 207.045" stroke="#666666" stroke-miterlimit="10"/>
<path d="M0 143.02C170.923 58.3357 375.453 -4.20587 568.882 23.3574C721.8 45.1421 875.357 135.452 1032.29 124.073C1136.59 116.505 1204.06 28.5479 1302.55 10.6497C1399.71 -7.01845 1488.2 65.8785 1560.86 119.139C1600.33 148.057 1641.45 177.308 1688 193.774C1768.23 222.156 1841.46 203.439 1918.18 175.007" stroke="#666666" stroke-miterlimit="10"/>
<path d="M0 119.343C172.739 45.5 374.404 -3.95027 564.023 19.4709C717.196 38.3919 872.186 113.897 1028.27 103.567C1130.71 96.7913 1209.02 23.2295 1307.84 7.19778C1399.05 -7.58106 1485.03 47.4433 1559.66 92.24C1680.97 165.06 1781.07 188.047 1918.18 143.173" stroke="#666666" stroke-miterlimit="10"/>
<path d="M0 95.6663C173.762 33.9685 365.043 -0.0126169 550.084 15.61C706.454 28.8291 861.955 90.5525 1019.94 82.6261C1125.9 77.3078 1216.69 14.5617 1320.99 3.925C1407.15 -4.87071 1488.49 34.2753 1564.29 70.0718C1685.88 127.525 1786.11 149.208 1918.18 112.005" stroke="#666666" stroke-miterlimit="10"/>
<path d="M0 71.9894C176.882 22.9482 365.734 0.115202 549.393 13.1298C702.669 23.9966 856.533 69.6371 1010.83 63.0147C1119.2 58.3612 1220.32 12.286 1327.84 2.82551C1418.33 -5.12643 1503.29 26.4256 1587.44 55.523C1700.46 94.6179 1800.05 109.167 1918.18 81.859" stroke="#666666" stroke-miterlimit="10"/>
<path d="M0 48.3382C174.299 14.5872 354.864 1.26579 532.386 9.19215C686.966 16.0958 841.367 46.3694 996.382 42.2783C1115.05 39.1589 1230.83 7.53017 1349.25 1.36806C1433.75 -3.02979 1515.44 16.4282 1597.21 35.3236C1706.11 60.4834 1807.06 72.194 1918.18 53.0428" stroke="#666666" stroke-miterlimit="10"/>
<path d="M0 24.6614C172.918 6.76314 347.601 1.26582 521.414 5.17786C674.229 8.62967 826.968 23.8432 979.911 21.7977C1109.99 20.059 1239.4 3.79714 1369.43 0.575459C1553.86 -4.00138 1733.19 44.5796 1918.18 25.9654" stroke="#666666" stroke-miterlimit="10"/>
<path d="M0 0.984569C639.369 -2.54394 1278.81 4.84548 1918.18 0.984569" stroke="#666666" stroke-miterlimit="10"/>
</g>
</svg>
