<svg width="34" height="34" viewBox="0 0 34 34" fill="none" xmlns="http://www.w3.org/2000/svg">
<path fill-rule="evenodd" clip-rule="evenodd" d="M1.7002 4.67499C1.7002 3.97083 2.27103 3.39999 2.9752 3.39999H20.8252C21.5294 3.39999 22.1002 3.97083 22.1002 4.67499C22.1002 5.37916 21.5294 5.94999 20.8252 5.94999H20.4002V29.325C20.4002 30.0292 19.8294 30.6 19.1252 30.6H16.5752C15.871 30.6 15.3002 30.0292 15.3002 29.325V25.075C15.3002 24.3708 14.7294 23.8 14.0252 23.8H9.7752C9.07103 23.8 8.5002 24.3708 8.5002 25.075V29.325C8.5002 30.0292 7.92936 30.6 7.2252 30.6H2.9752C2.27103 30.6 1.7002 30.0292 1.7002 29.325C1.7002 28.6208 2.27103 28.05 2.9752 28.05H3.4002V5.94999H2.9752C2.27103 5.94999 1.7002 5.37916 1.7002 4.67499ZM6.8002 9.34999C6.8002 8.88055 7.18075 8.49999 7.6502 8.49999H9.3502C9.81964 8.49999 10.2002 8.88055 10.2002 9.34999V11.05C10.2002 11.5194 9.81964 11.9 9.3502 11.9H7.6502C7.18075 11.9 6.8002 11.5194 6.8002 11.05V9.34999ZM7.6502 15.3C7.18075 15.3 6.8002 15.6806 6.8002 16.15V17.85C6.8002 18.3194 7.18075 18.7 7.6502 18.7H9.3502C9.81964 18.7 10.2002 18.3194 10.2002 17.85V16.15C10.2002 15.6806 9.81964 15.3 9.3502 15.3H7.6502ZM13.6002 9.34999C13.6002 8.88055 13.9808 8.49999 14.4502 8.49999H16.1502C16.6196 8.49999 17.0002 8.88055 17.0002 9.34999V11.05C17.0002 11.5194 16.6196 11.9 16.1502 11.9H14.4502C13.9808 11.9 13.6002 11.5194 13.6002 11.05V9.34999ZM14.4502 15.3C13.9808 15.3 13.6002 15.6806 13.6002 16.15V17.85C13.6002 18.3194 13.9808 18.7 14.4502 18.7H16.1502C16.6196 18.7 17.0002 18.3194 17.0002 17.85V16.15C17.0002 15.6806 16.6196 15.3 16.1502 15.3H14.4502Z" fill="#A685FA"/>
<path fill-rule="evenodd" clip-rule="evenodd" d="M24.2252 10.2C23.521 10.2 22.9502 10.7708 22.9502 11.475V28.9C22.9502 29.8389 23.7113 30.6 24.6502 30.6H31.0252C31.7294 30.6 32.3002 30.0292 32.3002 29.325C32.3002 28.6208 31.7294 28.05 31.0252 28.05H30.6002V12.75H31.0252C31.7294 12.75 32.3002 12.1792 32.3002 11.475C32.3002 10.7708 31.7294 10.2 31.0252 10.2H24.2252ZM25.0752 16.15C25.0752 15.6806 25.4558 15.3 25.9252 15.3H27.6252C28.0946 15.3 28.4752 15.6806 28.4752 16.15V17.85C28.4752 18.3194 28.0946 18.7 27.6252 18.7H25.9252C25.4558 18.7 25.0752 18.3194 25.0752 17.85V16.15ZM25.9252 22.1C25.4558 22.1 25.0752 22.4806 25.0752 22.95V24.65C25.0752 25.1194 25.4558 25.5 25.9252 25.5H27.6252C28.0946 25.5 28.4752 25.1194 28.4752 24.65V22.95C28.4752 22.4806 28.0946 22.1 27.6252 22.1H25.9252Z" fill="#A685FA"/>
</svg>
