<svg width="34" height="34" viewBox="0 0 34 34" fill="none" xmlns="http://www.w3.org/2000/svg">
<path d="M4.89366 12.1058C6.88533 14.0975 10.1145 14.0975 12.1061 12.1058C12.3509 11.8611 12.5656 11.5976 12.7502 11.3201C13.6639 12.6941 15.2261 13.5996 16.9999 13.5996C18.7739 13.5996 20.3364 12.6938 21.25 11.3196C21.4347 11.5973 21.6495 11.8609 21.8944 12.1059C23.8861 14.0975 27.1152 14.0975 29.1069 12.1059C31.0986 10.1142 31.0986 6.88504 29.1069 4.89336L28.6094 4.39583C27.9718 3.75821 27.107 3.39999 26.2052 3.39999H7.79529C6.89356 3.39999 6.02876 3.75821 5.39113 4.39583L4.89366 4.8933C2.90198 6.88498 2.90198 10.1141 4.89366 12.1058Z" fill="#A685FA"/>
<path d="M5.0999 15.3548C7.52749 16.5591 10.4616 16.3947 12.7509 14.8615C13.9654 15.6741 15.4269 16.1496 16.9999 16.1496C18.573 16.1496 20.0347 15.674 21.2493 14.8612C23.5384 16.3946 26.4723 16.5592 28.8999 15.3552V28.05H29.3249C30.0291 28.05 30.5999 28.6208 30.5999 29.325C30.5999 30.0292 30.0291 30.6 29.3249 30.6H21.6749C20.9707 30.6 20.3999 30.0292 20.3999 29.325V23.375C20.3999 22.6708 19.8291 22.1 19.1249 22.1H14.8749C14.1707 22.1 13.5999 22.6708 13.5999 23.375V29.325C13.5999 30.0292 13.0291 30.6 12.3249 30.6H4.6749C3.97074 30.6 3.3999 30.0292 3.3999 29.325C3.3999 28.6208 3.97074 28.05 4.6749 28.05H5.0999V15.3548Z" fill="#A685FA"/>
</svg>
