<svg width="2404" height="1605" viewBox="0 0 2404 1605" fill="none" xmlns="http://www.w3.org/2000/svg">
<path d="M0 1604.74C801.177 1601.35 1602.55 1599.84 2403.72 1604.74" stroke="url(#paint0_linear_104_13758)" stroke-miterlimit="10"/>
<path d="M0 1572.77C231.943 1557.25 467.444 1551.96 699.708 1564.21C794.575 1569.21 889.699 1571.68 984.598 1566.42C1088.09 1560.68 1186.61 1537.78 1288.72 1523.8C1470.31 1498.91 1654.44 1557.38 1835.26 1567.13C2025.73 1577.42 2212.77 1550.67 2403.72 1575.05" stroke="url(#paint1_linear_104_13758)" stroke-miterlimit="10"/>
<path d="M0 1537.04C240.917 1510.39 490.616 1505.52 732.11 1529.44C828.932 1539.03 926.556 1544.1 1023.54 1533.93C1137.99 1521.97 1237.31 1477.9 1347.43 1451C1531.36 1406.07 1712.96 1515.17 1893.53 1532.91C1972.78 1540.7 2051.24 1523.67 2130.31 1518.57C2223.8 1512.51 2312.99 1522.16 2403.72 1545.35" stroke="url(#paint2_linear_104_13758)" stroke-miterlimit="10"/>
<path d="M0 1498.3C248.321 1462.29 503.628 1466.71 752.141 1500.1C849.925 1513.21 947.773 1520.43 1045.78 1505.23C1096.77 1497.31 1146.51 1484 1195.16 1466.84C1261.31 1443.52 1322.3 1400.68 1387.91 1379.25C1572.04 1319.12 1746.77 1472.55 1921.38 1499.97C2001.5 1512.54 2074.61 1486.47 2153.54 1477.46C2241.46 1467.42 2321.52 1484.61 2403.76 1515.68" stroke="url(#paint3_linear_104_13758)" stroke-miterlimit="10"/>
<path d="M0 1457.12C243.097 1414.5 491.449 1427.84 733.681 1470.98C838.804 1489.71 944.087 1502.05 1049.85 1480.57C1184.14 1453.27 1283.17 1372.49 1406.11 1320.85C1605.5 1237.12 1764.27 1440.25 1950.25 1471.14C2023.68 1483.32 2084.22 1452.22 2154.51 1438.65C2244.73 1421.24 2322.67 1446.86 2403.72 1486.02" stroke="url(#paint4_linear_104_13758)" stroke-miterlimit="10"/>
<path d="M0 1414.18C243.289 1364.21 481.931 1393.78 721.63 1447.89C827.074 1471.68 932.805 1484.7 1039.18 1458.37C1094.4 1444.71 1146.58 1422.42 1196.96 1396.25C1272.37 1357.09 1339.1 1291.67 1414.77 1256.68C1618.16 1162.62 1763.28 1399.81 1944.2 1439.2C2026.53 1457.12 2081.3 1417.74 2157.23 1398.4C2247.48 1375.44 2326.16 1412.48 2403.72 1456.32" stroke="url(#paint5_linear_104_13758)" stroke-miterlimit="10"/>
<path d="M0 1370.15C238.482 1313.48 457.22 1360.78 688.298 1423.74C795.601 1452.95 902.839 1470.62 1012.1 1440.32C1069.91 1424.28 1123.73 1397.86 1175.39 1367.74C1256.35 1320.57 1326.18 1245.36 1407.68 1202.58C1621.74 1090.23 1748.69 1365.69 1933.68 1409.56C2020.63 1430.18 2071.56 1382.91 2148.99 1358.51C2242.71 1328.97 2326 1378.04 2403.69 1426.62" stroke="url(#paint6_linear_104_13758)" stroke-miterlimit="10"/>
<path d="M0 1325.63C227.745 1262.84 421.165 1324.86 636.987 1395.87C744.033 1431.08 850.79 1457.44 962.355 1428.58C1132.09 1384.67 1242.73 1251.07 1385.38 1161.04C1617.03 1014.9 1720.27 1340.35 1922.37 1381.79C2009.87 1399.75 2059.35 1343.91 2136.69 1316.94C2234.63 1282.79 2325.04 1344.3 2403.72 1396.86" stroke="url(#paint7_linear_104_13758)" stroke-miterlimit="10"/>
<path d="M0 1281.34C220.982 1209.92 390.653 1290.19 593.592 1369.76C703.17 1412.7 813.997 1447.53 930.754 1412.03C1103.85 1359.4 1216.67 1216.05 1359.77 1116.34C1603.06 946.844 1682.93 1309.02 1891.89 1351.61C1980.83 1369.73 2035.73 1307.77 2111.88 1277.53C2219.44 1234.81 2318.18 1307.51 2403.72 1367.26" stroke="url(#paint8_linear_104_13758)" stroke-miterlimit="10"/>
<path d="M0 1237.85C99.0014 1200.11 195.631 1191.42 298.03 1221.88C392.576 1250.01 473.758 1306.81 562.984 1346.99C668.364 1394.46 776.627 1436.08 891.942 1398.27C1075.11 1338.2 1185.36 1175.09 1334.84 1066.88C1576.88 891.65 1647.29 1265.18 1846 1315.56C1946.6 1341.06 2004.9 1267.14 2090.44 1233.33C2206.04 1187.63 2314.05 1272.94 2403.72 1337.56" stroke="url(#paint9_linear_104_13758)" stroke-miterlimit="10"/>
<path d="M0 1195.87C89.098 1155.5 177.876 1142.92 271.973 1174.48C364.661 1205.56 439.946 1270.98 525.326 1316.27C624.648 1368.96 726.854 1421.84 841.143 1388.11C1032.77 1331.6 1153.05 1148.41 1301.76 1029.88C1555.34 827.733 1597.42 1234.23 1805.16 1281.02C1911.76 1305.04 1978.14 1219.32 2069.67 1185.9C2192.81 1140.97 2310.91 1239.14 2403.69 1307.83" stroke="url(#paint10_linear_104_13758)" stroke-miterlimit="10"/>
<path d="M0 1156.01C205.919 1045.37 329.599 1176.25 497.315 1282.02C592.566 1342.08 695.125 1411.58 811.85 1372.9C1000.88 1310.27 1125.23 1121.95 1268.53 996.714C1361.02 915.895 1449.57 897.134 1528.8 999.376C1597.52 1088.02 1641.65 1215.69 1763.92 1241.38C1870.39 1263.74 1945.57 1175.99 2036.92 1140.23C2171.33 1087.57 2304.4 1202.7 2403.72 1278.17" stroke="url(#paint11_linear_104_13758)" stroke-miterlimit="10"/>
<path d="M0 1118.94C199.445 993.507 323.734 1123.75 481.033 1241.96C564.939 1305.01 659.935 1392.34 773.294 1362.74C842.297 1344.71 903.48 1293.5 956.17 1248.28C1057.45 1161.4 1141.51 1058.9 1237.66 967.112C1329.84 879.11 1420.7 844.474 1499.73 960.57C1558.64 1047.1 1603.83 1180.77 1722.25 1199.66C1834.84 1217.62 1917.24 1120.96 2015.99 1087.54C2158.42 1039.3 2302 1168.93 2403.72 1248.41" stroke="url(#paint12_linear_104_13758)" stroke-miterlimit="10"/>
<path d="M0 1085.33C77.7525 1029.36 163.549 994.244 258.288 1028.34C342.643 1058.71 408.217 1129.26 473.053 1188.05C546.126 1254.31 638.429 1371.94 750.603 1348.82C813.741 1335.8 869.283 1287.44 916.46 1246.26C1020.59 1155.34 1111.87 1050.02 1205.48 948.704C1293.11 853.838 1390.22 785.591 1471.94 917.627C1526.97 1006.5 1569.7 1147.06 1694.5 1152C1805.26 1156.39 1888.49 1067.88 1988.33 1035.23C2141.46 985.168 2296.81 1132.31 2403.76 1218.74" stroke="url(#paint13_linear_104_13758)" stroke-miterlimit="10"/>
<path d="M0 1054.47C79.8037 992.256 168.709 950.949 269.506 986.804C354.565 1017.05 425.011 1086 487.892 1147.99C553.273 1212.49 641.025 1339.17 748.071 1317.55C807.972 1305.46 860.662 1257 904.826 1217.68C1005.81 1127.72 1096 1025.16 1187.25 925.645C1270.8 834.532 1368.94 751.468 1451.82 882.894C1506.05 968.876 1547.23 1106.11 1669.69 1107.81C1779.49 1109.31 1871.06 1029.55 1973.59 1002.23C2133.16 959.672 2289.11 1099.18 2403.72 1188.31" stroke="url(#paint14_linear_104_13758)" stroke-miterlimit="10"/>
<path d="M0 1020.09C88.0404 950.788 181.978 913.522 289.601 961.628C378.603 1001.43 456.547 1076.73 525.422 1143.41C587.214 1203.25 663.781 1304.24 761.211 1272.78C820.664 1253.57 872.36 1202.26 916.716 1161.01C1005.62 1078.37 1088.25 988.856 1172.12 901.175C1252.05 817.566 1349.03 736.234 1434.96 852.812C1496.08 935.747 1534.99 1068.39 1657 1074.45C1765.68 1079.84 1870.77 1008.1 1975.54 988.856C2133.99 959.736 2281.36 1069.03 2403.76 1153.25" stroke="url(#paint15_linear_104_13758)" stroke-miterlimit="10"/>
<path d="M0 981.897C94.6747 909.61 191.144 877.827 301.748 934.913C386.487 978.626 464.688 1049.02 534.396 1113.26C599.361 1173.14 679.132 1276.31 777.3 1230.64C828.548 1206.81 870.725 1161.43 910.98 1123.04C995.655 1042.22 1075.75 956.529 1158.44 873.722C1243.98 788.061 1340.89 721.642 1429.64 835.526C1490.73 913.939 1534.73 1037.38 1650.56 1042.51C1757.12 1047.26 1862.98 996.169 1966.98 979.171C2127.52 952.937 2270.05 1034.85 2403.76 1113.77" stroke="url(#paint16_linear_104_13758)" stroke-miterlimit="10"/>
<path d="M0 940.59C109.193 861.76 213.355 843.928 329.631 917.274C413.184 969.967 490.424 1041.36 565.196 1105.72C627.628 1159.47 697.849 1243.85 785.217 1194.98C832.009 1168.81 870.949 1122.14 908.223 1084.4C987.578 1003.99 1064.85 921.636 1146.51 843.544C1231.12 762.629 1327.98 704.228 1418.04 806.47C1485.28 882.798 1531.85 1004.54 1647.38 1015.57C1749.21 1025.29 1860.16 985.457 1960.32 969.935C2120.37 945.144 2261.2 1001.75 2403.69 1070.86" stroke="url(#paint17_linear_104_13758)" stroke-miterlimit="10"/>
<path d="M0 896.941C118.295 817.309 227.072 808.779 345.624 892.099C435.074 954.958 515.455 1034.4 600.514 1103.29C659.005 1150.62 723.713 1215.53 796.819 1161.14C845.15 1125.19 884.603 1071.02 924.729 1026.89C992.578 952.328 1062.13 878.757 1136.77 810.959C1228.24 727.864 1327.43 688.609 1419.54 788.766C1486.98 862.08 1538.64 976.509 1649.44 988.921C1754.3 1000.66 1867.69 973.11 1971.57 958.838C2124.32 937.864 2260.27 972.019 2403.72 1025.16" stroke="url(#paint18_linear_104_13758)" stroke-miterlimit="10"/>
<path d="M0 851.625C134.865 767.247 249.507 776.227 373.314 875.133C467.252 950.179 547.312 1037.51 645.224 1108.32C712.4 1156.88 760.827 1184.3 822.138 1116.63C926.331 1001.62 1010.72 870.547 1132.8 771.384C1222.41 698.615 1320.99 671.484 1410.28 756.183C1485.73 827.733 1536.49 937.575 1645.4 963.36C1745.94 987.125 1872.12 963.681 1973.2 949.891C2122.39 929.526 2257.03 941.488 2403.76 977.664" stroke="url(#paint19_linear_104_13758)" stroke-miterlimit="10"/>
<path d="M0 805.411C151.018 717.249 273.993 745.888 401.326 858.745C492.539 939.596 568.401 1033.21 671.921 1099.63C747.911 1148.41 787.909 1157.04 839.893 1079.36C922.261 956.305 1005.17 830.523 1125.17 739.762C1222.18 666.352 1320.48 649.868 1415.28 734.503C1494.22 804.994 1550.4 918.397 1662.03 943.348C1761.03 965.477 1876.57 954.958 1976.37 941.36C2121.27 921.604 2257.39 912.688 2403.76 929.012" stroke="url(#paint20_linear_104_13758)" stroke-miterlimit="10"/>
<path d="M0 759.037C164.607 668.116 293.383 712.919 423.857 837.322C516.192 925.356 592.31 1032.89 705.99 1095.3C790.377 1141.64 819.991 1117.56 860.245 1038.12C924.28 911.79 1005.27 784.116 1123.89 701.823C1224.3 632.133 1325.86 629.984 1420.18 710.065C1502.46 779.947 1562.39 890.399 1672.61 921.38C1909.01 987.83 2166.27 888.507 2403.76 880.265" stroke="url(#paint21_linear_104_13758)" stroke-miterlimit="10"/>
<path d="M0 713.208C81.8869 669.559 158.87 643.646 250.5 675.428C326.298 701.726 388.378 756.92 443.984 813.14C535.71 905.953 614.136 1030.84 736.341 1086C828.003 1127.37 849.701 1071.63 880.629 993.86C931.043 866.987 1007.16 737.004 1126.1 662.728C1385.31 500.802 1478.87 828.438 1685.11 899.475C1925.96 982.442 2168.22 877.763 2403.76 832.126" stroke="url(#paint22_linear_104_13758)" stroke-miterlimit="10"/>
<path d="M0 668.661C85.4123 623.441 164.126 598.234 257.423 632.581C335.688 661.381 398.954 720.231 455.65 779.851C544.812 873.594 637.019 1035.87 770.025 1073.2C863.129 1099.34 877.808 1012.17 901.397 942.001C942.677 819.17 1013.83 683.734 1132.86 618.759C1379.96 483.869 1504.41 787.163 1690.97 872.888C1935.74 985.361 2172.74 870.034 2403.72 785.431" stroke="url(#paint23_linear_104_13758)" stroke-miterlimit="10"/>
<path d="M0 626.167C86.2456 579.216 163.934 553.719 258.865 586.977C337.579 614.558 401.903 676.102 457.861 736.074C548.658 833.409 645.993 1018.3 787.172 1045.88C883.128 1064.64 896.589 968.716 917.55 896.685C953.542 773.116 1018.35 636.334 1142.73 578.863C1390.19 464.53 1523.64 755.701 1706.16 849.861C1801.19 898.866 1924.23 923.977 2030.09 906.915C2164.28 885.3 2287 805.732 2403.76 741.173" stroke="url(#paint24_linear_104_13758)" stroke-miterlimit="10"/>
<path d="M0 586.4C91.8543 533.258 180.632 502.631 282.325 548.556C358.636 583.032 419.177 646.404 473.886 707.916C555.869 800.088 659.197 994.277 797.107 1008.84C900.916 1019.8 914.024 906.37 936.267 829.785C970.656 711.412 1032.58 584.507 1157.22 538.839C1402.81 448.816 1544.83 718.756 1722.03 824.237C1811.57 877.539 1928.62 914.035 2033.36 900.982C2173.67 883.472 2295.11 781.871 2403.69 699.93" stroke="url(#paint25_linear_104_13758)" stroke-miterlimit="10"/>
<path d="M0 550.127C86.7264 494.837 172.107 456.352 274.569 497.756C356.681 530.949 422.062 601.409 478.469 667.25C559.106 761.378 660.511 954.637 803.773 958.036C905.916 960.442 924.825 845.372 948.926 768.53C986.2 649.804 1045.14 534.637 1175.87 501.059C1426.21 436.725 1565.21 683.542 1744.33 801.948C1832.02 859.932 1948.97 907.749 2055.79 892.323C2195.5 872.119 2307.74 755.926 2403.72 662.728" stroke="url(#paint26_linear_104_13758)" stroke-miterlimit="10"/>
<path d="M0 518.089C79.6114 460.329 162.299 411.934 263.544 445.865C342.451 472.292 404.595 537.01 457.701 598.394C544.684 698.904 632.18 877.699 781.916 889.116C895.756 897.775 925.338 787.067 958.093 699.481C1002.77 579.985 1065.04 478.802 1201.86 460.297C1444.41 427.489 1584.18 636.174 1752.7 767.536C1837.18 833.377 1951.57 896.428 2062.11 885.653C2208.73 871.349 2316.65 734.92 2403.72 630.337" stroke="url(#paint27_linear_104_13758)" stroke-miterlimit="10"/>
<path d="M0 492.817C79.2268 437.495 160.921 391.954 260.147 424.281C337.419 449.457 398.922 511.322 451.387 570.845C535.902 666.673 625.353 850.631 770.794 855.666C883.257 859.547 921.748 759.871 962.067 672.253C1013.76 559.973 1083.73 457.186 1216.41 439.259C1450.47 407.637 1596.68 602.595 1762.8 727.287C1844.3 788.446 1959.26 850.663 2063.93 848.611C2210.27 845.724 2318.66 706.441 2403.72 604.776" stroke="url(#paint28_linear_104_13758)" stroke-miterlimit="10"/>
<path d="M0 475.531C77.9768 422.133 158.486 377.843 255.756 407.284C330.913 430.022 391.519 487.942 443.151 544.643C526.319 636.013 615.385 818.047 756.115 818.913C866.462 819.587 913.447 731.712 961.618 646.115C1020.46 541.564 1097.7 441.247 1225.68 423.672C1451.27 392.724 1603.67 567.574 1769.88 683.959C1850.58 740.468 1964.29 803.519 2064.16 812.435C2209.76 825.423 2319.91 684.761 2403.69 586.752" stroke="url(#paint29_linear_104_13758)" stroke-miterlimit="10"/>
<path d="M0 464.819C74.8039 413.666 154.768 369.44 248.193 393.173C327.836 413.377 391.102 473.638 445.33 531.975C527.762 620.651 610.418 785.367 748.135 779.241C852.329 774.623 905.435 695.472 959.855 617.572C1026.68 521.873 1107.35 432.139 1229.71 414.756C1451.91 383.167 1607.58 534.316 1780.45 642.139C1860.32 691.977 1961.66 751.083 2053.68 774.912C2202.84 813.525 2316.42 673.664 2403.72 574.886" stroke="url(#paint30_linear_104_13758)" stroke-miterlimit="10"/>
<path d="M0 459.303C72.7527 408.919 151.018 363.732 242.904 382.429C319.407 398.015 381.583 451.638 434.882 505.485C518.467 589.895 596.284 741.494 729.707 735.561C830.919 731.071 891.782 664.428 953.702 592.621C1027.9 506.607 1113.53 424.891 1231.19 407.765C1444 376.784 1607.07 497.627 1781.96 593.776C1868.75 641.497 1960.03 699.834 2051.15 738.447C2197.84 800.633 2313.15 666.063 2403.69 567.895" stroke="url(#paint31_linear_104_13758)" stroke-miterlimit="10"/>
<path d="M0 457.603C153.069 349.011 285.466 349.556 424.466 478.321C509.814 557.375 582.342 693.067 711.086 688.449C808.998 684.921 877.071 630.914 946.074 567.51C1027.38 492.817 1116.96 420.561 1229.94 403.756C1432.72 373.577 1604.41 460.97 1780.87 543.873C1878.01 589.51 1956.6 646.757 2047.08 702.271C2189.95 789.921 2306.58 664.781 2403.76 564.559" stroke="url(#paint32_linear_104_13758)" stroke-miterlimit="10"/>
<path d="M0 458.341C142.461 353.918 273.576 333.649 414.659 449.874C502.25 522.033 569.715 640.247 693.234 637.809C898.897 633.768 1025.56 432.203 1226.57 401.8C1419.13 372.679 1600.02 424.314 1777.12 492.721C1885.39 534.541 1953.56 593.776 2041.37 666.031C2179.12 779.37 2296.2 668.501 2403.72 563.405" stroke="url(#paint33_linear_104_13758)" stroke-miterlimit="10"/>
<path d="M0 460.137C130.282 360.781 260.371 318.704 402.672 417.13C490.648 477.968 555.164 579.633 668.844 583.545C873.257 590.633 1025.36 430.407 1221.54 399.779C1400.54 371.846 1591.84 387.336 1764.53 439.162C1887.47 476.076 1950.25 543.2 2036.92 632.806C2069.29 666.288 2105.69 701.149 2154.31 706.409C2251.04 716.832 2341.52 620.908 2403.72 563.308" stroke="url(#paint34_linear_104_13758)" stroke-miterlimit="10"/>
<path d="M0 461.612C121.212 365.463 250.692 304.369 396.166 384.866C486.161 434.672 548.754 519.211 656.088 525.465C855.79 537.107 1024.02 430.022 1216.12 400.164C1388.46 373.385 1583.73 351.064 1755.84 388.009C1888.24 416.424 1947.79 495.671 2028.04 596.951C2058.77 635.756 2093.58 680.399 2144.38 692.586C2242.51 716.126 2339.34 619.368 2403.69 562.956" stroke="url(#paint35_linear_104_13758)" stroke-miterlimit="10"/>
<path d="M0 461.355C118.295 363.86 249.763 288.397 402.063 353.437C485.104 388.907 546.895 453.915 639.295 462.959C837.874 482.426 1018.44 429.605 1212.34 401.126C1314.52 386.117 1415.18 371.236 1516.49 350.807C1595.24 334.932 1671.77 326.69 1751.83 338.171C1890.16 357.991 1948.59 456.898 2020.31 564.656C2049.03 607.791 2083.55 661.349 2135.73 678.507C2235.72 711.412 2335.46 617.765 2403.72 560.903" stroke="url(#paint36_linear_104_13758)" stroke-miterlimit="10"/>
<path d="M0 458.02C113.937 361.102 245.468 271.304 401.198 312.835C483.758 334.868 550.389 386.117 636.186 396.957C831.913 421.652 1013.25 427.264 1208.82 400.004C1312.37 385.572 1409.45 364.309 1508.22 330.057C1584.28 303.695 1657.26 282.079 1738.79 287.852C1883.97 298.115 1942.95 414.949 2008.49 528.415C2036.4 576.746 2070.12 638.932 2124.22 662.439C2226.14 706.729 2331.16 613.66 2403.79 556.028" stroke="url(#paint37_linear_104_13758)" stroke-miterlimit="10"/>
<path d="M0 450.227C112.334 352.411 243.353 252.51 400.941 267.647C485.552 275.761 562.984 315.786 646.986 328.165C838.996 356.484 1007.9 421.106 1205.13 397.021C1309.49 384.257 1403.26 356.997 1497.3 310.366C1568.13 275.248 1635.62 239.714 1716.77 238.687C1874.52 236.763 1934.1 374.636 1997.62 496.248C2025.06 548.78 2058.04 617.123 2113.93 645.282C2217.64 697.557 2327 605.482 2403.72 546.888" stroke="url(#paint38_linear_104_13758)" stroke-miterlimit="10"/>
<path d="M0 436.597C114.642 335.606 246.013 229.194 405.14 218.675C490.937 212.999 581.253 238.527 664.742 255.845C852.521 294.779 1008.86 413.217 1208.27 391.665C1310.8 380.601 1401.34 347.215 1487.3 290.899C1556.65 245.454 1620.21 196.739 1706.32 191.704C1867.5 182.307 1926.54 342.437 1985.35 463.953C2013.3 521.648 2045.38 591.435 2103 625.59C2206.49 686.91 2325.81 590.024 2403.72 532.296" stroke="url(#paint39_linear_104_13758)" stroke-miterlimit="10"/>
<path d="M0 415.686C196.176 243.274 402.928 110.34 669.998 174.931C860.117 220.92 1006.55 399.779 1212.82 382.91C1317.34 374.347 1405.38 332.366 1484.89 265.883C1547.17 213.833 1602.64 156.746 1687.61 147.542C1849.65 129.999 1909.04 294.01 1964.58 415.366C1994.9 481.592 2027.72 564.431 2093.52 603.878C2199.6 667.475 2322.8 569.755 2403.69 510.873" stroke="url(#paint40_linear_104_13758)" stroke-miterlimit="10"/>
<path d="M0 387.272C188.772 225.891 431.613 47.3848 695.702 121.404C881.077 173.359 1021.13 371.204 1224.87 360.749C1326.76 355.521 1413.33 306.678 1485.25 237.469C1542.29 182.596 1593.28 120.699 1677.19 111.398C1832.63 94.1121 1895.9 256.006 1950.67 371.108C1983.46 439.964 2017.81 524.246 2085.25 566.612C2193.22 634.442 2317.93 541.821 2403.69 482.041" stroke="url(#paint41_linear_104_13758)" stroke-miterlimit="10"/>
<path d="M0 357.574C189.446 203.057 438.151 32.4399 698.074 96.5174C889.122 143.597 1040.46 339.935 1247.31 326.497C1341.05 320.404 1419.61 274.831 1485.44 210.561C1537.97 159.28 1584.02 100.847 1660.72 88.3073C1813.69 63.292 1889.26 229.259 1948.62 339.326C1982.72 402.505 2019.71 475.723 2081.59 516.485C2189.83 587.779 2311.61 508.852 2403.72 449.521" stroke="url(#paint42_linear_104_13758)" stroke-miterlimit="10"/>
<path d="M0 327.877C193.035 178.811 453.855 13.9671 711.855 79.6482C899.442 127.402 1060.01 306.614 1262.44 295.613C1348.75 290.931 1424.32 244.909 1484.67 186.348C1533.03 139.428 1576.07 83.5288 1645.56 68.8083C1796.13 36.9298 1882.73 204.179 1948.3 308.602C1987.72 371.365 2028.94 440.445 2096.62 475.948C2203.73 532.104 2310.27 470.111 2403.72 414.596" stroke="url(#paint43_linear_104_13758)" stroke-miterlimit="10"/>
<path d="M0 298.179C199.221 153.764 466.387 2.10086 724.13 65.986C909.922 112.04 1077.32 277.974 1276.63 264.344C1356.92 258.86 1425.54 218.483 1482.91 164.508C1531.14 119.127 1574.47 63.8052 1643.38 51.073C1786.54 24.5825 1879.81 181.633 1949.68 278.936C1989.77 334.772 2032.27 391.73 2093.39 425.564C2199.73 484.382 2306.9 430.535 2403.72 377.682" stroke="url(#paint44_linear_104_13758)" stroke-miterlimit="10"/>
<path d="M0 268.481C200.599 133.303 459.432 2.80639 710.958 50.2392C905.627 86.9603 1081.55 249.752 1285.99 235.416C1363.52 229.964 1429.54 190.389 1486.01 139.524C1532.2 97.8964 1574.15 49.9185 1638.15 37.8278C1770.65 12.7804 1869.3 148.055 1942.11 236.443C1989.77 294.33 2041.85 357.863 2113.16 387.464C2213.99 429.317 2313.25 384.61 2403.76 339.262" stroke="url(#paint45_linear_104_13758)" stroke-miterlimit="10"/>
<path d="M0 238.784C205.599 111.591 469.784 -5.11514 718.97 42.5742C908.928 78.9425 1093.5 223.39 1292.18 208.733C1436.47 198.086 1499.44 56.5571 1629.5 27.8858C1760.26 -0.913854 1866.73 126.536 1947.11 209.022C1995.44 258.635 2045.89 310.751 2111.14 337.69C2212.16 379.382 2310.2 342.404 2403.69 299.75" stroke="url(#paint46_linear_104_13758)" stroke-miterlimit="10"/>
<path d="M0 209.086C211.015 91.0333 470.201 -4.79433 717.047 34.9414C908.544 65.7615 1096.52 196.707 1294.81 181.858C1431.02 171.659 1503.83 44.4986 1629.57 19.8361C1752.15 -4.18498 1857.63 96.9985 1941.82 170.922C1993.81 216.591 2047.3 264.505 2112.78 289.873C2213.06 328.742 2308.99 298.917 2403.76 259.694" stroke="url(#paint47_linear_104_13758)" stroke-miterlimit="10"/>
<path d="M0 179.388C214.188 73.1698 470.489 -5.2755 712.881 29.2969C904.506 56.6212 1096.93 169.895 1293.59 155.624C1424.29 146.131 1508.83 35.8072 1632.26 13.3577C1754.01 -8.8033 1864.91 82.6307 1955.96 149.434C2005.41 185.706 2056.95 222.395 2115.28 243.049C2215.82 278.648 2307.58 255.172 2403.72 219.509" stroke="url(#paint48_linear_104_13758)" stroke-miterlimit="10"/>
<path d="M0 149.691C216.463 57.0702 469.175 -4.95479 706.791 24.4221C898.737 48.1545 1092.96 142.86 1288.56 129.903C1416.92 121.404 1515.05 29.1365 1638.89 9.02809C1753.18 -9.50886 1860.93 59.5076 1954.45 115.696C2106.46 207.033 2231.91 235.865 2403.72 179.581" stroke="url(#paint49_linear_104_13758)" stroke-miterlimit="10"/>
<path d="M0 119.993C217.745 42.6063 457.445 -0.0158133 689.324 19.5795C885.276 36.1601 1080.14 113.579 1278.11 103.637C1410.89 96.9664 1524.67 18.2646 1655.36 4.9231C1763.34 -6.10927 1865.26 42.9912 1960.25 87.8904C2112.62 159.954 2238.22 187.15 2403.72 140.487" stroke="url(#paint50_linear_104_13758)" stroke-miterlimit="10"/>
<path d="M0 90.2956C221.655 28.7838 458.31 0.1445 688.459 16.4686C880.532 30.0987 1073.34 87.3451 1266.7 79.0388C1402.49 73.2019 1529.22 15.4102 1663.95 3.54401C1777.35 -6.43002 1883.81 33.1454 1989.26 69.642C2130.89 118.678 2255.69 136.927 2403.72 102.675" stroke="url(#paint51_linear_104_13758)" stroke-miterlimit="10"/>
<path d="M0 60.6302C218.418 18.2967 444.689 1.58776 667.146 11.5297C860.854 20.1888 1054.34 58.1607 1248.59 53.0294C1397.3 49.1167 1542.39 9.44512 1690.78 1.71604C1796.67 -3.80014 1899.04 20.6058 2001.5 44.3061C2137.97 75.8638 2264.47 90.5523 2403.72 66.5312" stroke="url(#paint52_linear_104_13758)" stroke-miterlimit="10"/>
<path d="M0 30.9326C216.688 8.483 435.587 1.58777 653.396 6.49461C844.893 10.8242 1036.29 29.9063 1227.95 27.3407C1390.96 25.1598 1553.13 4.76278 1716.07 0.721856C1947.18 -5.01882 2171.91 55.9158 2403.72 32.5682" stroke="url(#paint53_linear_104_13758)" stroke-miterlimit="10"/>
<path d="M0 1.23494C801.209 -3.19084 1602.52 6.07763 2403.72 1.23494" stroke="url(#paint54_linear_104_13758)" stroke-miterlimit="10"/>
<defs>
<linearGradient id="paint0_linear_104_13758" x1="1201.86" y1="1601.6" x2="1201.86" y2="1604.74" gradientUnits="userSpaceOnUse">
<stop stop-color="#333333"/>
<stop offset="1" stop-color="#333333" stop-opacity="0"/>
</linearGradient>
<linearGradient id="paint1_linear_104_13758" x1="1201.86" y1="1517.68" x2="1201.86" y2="1575.05" gradientUnits="userSpaceOnUse">
<stop stop-color="#333333"/>
<stop offset="1" stop-color="#333333" stop-opacity="0"/>
</linearGradient>
<linearGradient id="paint2_linear_104_13758" x1="1201.86" y1="1440.23" x2="1201.86" y2="1545.35" gradientUnits="userSpaceOnUse">
<stop stop-color="#333333"/>
<stop offset="1" stop-color="#333333" stop-opacity="0"/>
</linearGradient>
<linearGradient id="paint3_linear_104_13758" x1="1201.88" y1="1365.4" x2="1201.88" y2="1515.68" gradientUnits="userSpaceOnUse">
<stop stop-color="#333333"/>
<stop offset="1" stop-color="#333333" stop-opacity="0"/>
</linearGradient>
<linearGradient id="paint4_linear_104_13758" x1="1201.86" y1="1300.76" x2="1201.86" y2="1491.91" gradientUnits="userSpaceOnUse">
<stop stop-color="#333333"/>
<stop offset="1" stop-color="#333333" stop-opacity="0"/>
</linearGradient>
<linearGradient id="paint5_linear_104_13758" x1="1201.86" y1="1234.8" x2="1201.86" y2="1472.92" gradientUnits="userSpaceOnUse">
<stop stop-color="#333333"/>
<stop offset="1" stop-color="#333333" stop-opacity="0"/>
</linearGradient>
<linearGradient id="paint6_linear_104_13758" x1="1201.85" y1="1175.85" x2="1201.85" y2="1456.1" gradientUnits="userSpaceOnUse">
<stop stop-color="#333333"/>
<stop offset="1" stop-color="#333333" stop-opacity="0"/>
</linearGradient>
<linearGradient id="paint7_linear_104_13758" x1="1201.86" y1="1123.56" x2="1201.86" y2="1440.9" gradientUnits="userSpaceOnUse">
<stop stop-color="#333333"/>
<stop offset="1" stop-color="#333333" stop-opacity="0"/>
</linearGradient>
<linearGradient id="paint8_linear_104_13758" x1="1201.86" y1="1071.46" x2="1201.86" y2="1426.69" gradientUnits="userSpaceOnUse">
<stop stop-color="#333333"/>
<stop offset="1" stop-color="#333333" stop-opacity="0"/>
</linearGradient>
<linearGradient id="paint9_linear_104_13758" x1="1201.86" y1="1020.45" x2="1201.86" y2="1412.98" gradientUnits="userSpaceOnUse">
<stop stop-color="#333333"/>
<stop offset="1" stop-color="#333333" stop-opacity="0"/>
</linearGradient>
<linearGradient id="paint10_linear_104_13758" x1="1201.85" y1="973.868" x2="1201.85" y2="1398.72" gradientUnits="userSpaceOnUse">
<stop stop-color="#333333"/>
<stop offset="1" stop-color="#333333" stop-opacity="0"/>
</linearGradient>
<linearGradient id="paint11_linear_104_13758" x1="1201.86" y1="929.265" x2="1201.86" y2="1384.07" gradientUnits="userSpaceOnUse">
<stop stop-color="#333333"/>
<stop offset="1" stop-color="#333333" stop-opacity="0"/>
</linearGradient>
<linearGradient id="paint12_linear_104_13758" x1="1201.86" y1="886.537" x2="1201.86" y2="1368.68" gradientUnits="userSpaceOnUse">
<stop stop-color="#333333"/>
<stop offset="1" stop-color="#333333" stop-opacity="0"/>
</linearGradient>
<linearGradient id="paint13_linear_104_13758" x1="1201.88" y1="844.204" x2="1201.88" y2="1351.78" gradientUnits="userSpaceOnUse">
<stop stop-color="#333333"/>
<stop offset="1" stop-color="#333333" stop-opacity="0"/>
</linearGradient>
<linearGradient id="paint14_linear_104_13758" x1="1201.86" y1="814.64" x2="1201.86" y2="1320" gradientUnits="userSpaceOnUse">
<stop stop-color="#333333"/>
<stop offset="1" stop-color="#333333" stop-opacity="0"/>
</linearGradient>
<linearGradient id="paint15_linear_104_13758" x1="1201.88" y1="794.726" x2="1201.88" y2="1278.72" gradientUnits="userSpaceOnUse">
<stop stop-color="#333333"/>
<stop offset="1" stop-color="#333333" stop-opacity="0"/>
</linearGradient>
<linearGradient id="paint16_linear_104_13758" x1="1201.88" y1="774.968" x2="1201.88" y2="1241.97" gradientUnits="userSpaceOnUse">
<stop stop-color="#333333"/>
<stop offset="1" stop-color="#333333" stop-opacity="0"/>
</linearGradient>
<linearGradient id="paint17_linear_104_13758" x1="1201.85" y1="751.925" x2="1201.85" y2="1209.66" gradientUnits="userSpaceOnUse">
<stop stop-color="#333333"/>
<stop offset="1" stop-color="#333333" stop-opacity="0"/>
</linearGradient>
<linearGradient id="paint18_linear_104_13758" x1="1201.86" y1="729.264" x2="1201.86" y2="1181.8" gradientUnits="userSpaceOnUse">
<stop stop-color="#333333"/>
<stop offset="1" stop-color="#333333" stop-opacity="0"/>
</linearGradient>
<linearGradient id="paint19_linear_104_13758" x1="1201.88" y1="703.685" x2="1201.88" y2="1157.06" gradientUnits="userSpaceOnUse">
<stop stop-color="#333333"/>
<stop offset="1" stop-color="#333333" stop-opacity="0"/>
</linearGradient>
<linearGradient id="paint20_linear_104_13758" x1="1201.88" y1="677.587" x2="1201.88" y2="1137.02" gradientUnits="userSpaceOnUse">
<stop stop-color="#333333"/>
<stop offset="1" stop-color="#333333" stop-opacity="0"/>
</linearGradient>
<linearGradient id="paint21_linear_104_13758" x1="1201.88" y1="649.756" x2="1201.88" y2="1118.74" gradientUnits="userSpaceOnUse">
<stop stop-color="#333333"/>
<stop offset="1" stop-color="#333333" stop-opacity="0"/>
</linearGradient>
<linearGradient id="paint22_linear_104_13758" x1="1201.88" y1="618.315" x2="1201.88" y2="1100.05" gradientUnits="userSpaceOnUse">
<stop stop-color="#333333"/>
<stop offset="1" stop-color="#333333" stop-opacity="0"/>
</linearGradient>
<linearGradient id="paint23_linear_104_13758" x1="1201.86" y1="584.679" x2="1201.86" y2="1077.95" gradientUnits="userSpaceOnUse">
<stop stop-color="#333333"/>
<stop offset="1" stop-color="#333333" stop-opacity="0"/>
</linearGradient>
<linearGradient id="paint24_linear_104_13758" x1="1201.88" y1="552.658" x2="1201.88" y2="1048.26" gradientUnits="userSpaceOnUse">
<stop stop-color="#333333"/>
<stop offset="1" stop-color="#333333" stop-opacity="0"/>
</linearGradient>
<linearGradient id="paint25_linear_104_13758" x1="1201.85" y1="520.755" x2="1201.85" y2="1009.58" gradientUnits="userSpaceOnUse">
<stop stop-color="#333333"/>
<stop offset="1" stop-color="#333333" stop-opacity="0"/>
</linearGradient>
<linearGradient id="paint26_linear_104_13758" x1="1201.86" y1="480.35" x2="1201.86" y2="958.074" gradientUnits="userSpaceOnUse">
<stop stop-color="#333333"/>
<stop offset="1" stop-color="#333333" stop-opacity="0"/>
</linearGradient>
<linearGradient id="paint27_linear_104_13758" x1="1201.86" y1="434.63" x2="1201.86" y2="889.594" gradientUnits="userSpaceOnUse">
<stop stop-color="#333333"/>
<stop offset="1" stop-color="#333333" stop-opacity="0"/>
</linearGradient>
<linearGradient id="paint28_linear_104_13758" x1="1201.86" y1="413.505" x2="1201.86" y2="855.776" gradientUnits="userSpaceOnUse">
<stop stop-color="#333333"/>
<stop offset="1" stop-color="#333333" stop-opacity="0"/>
</linearGradient>
<linearGradient id="paint29_linear_104_13758" x1="1201.85" y1="397.87" x2="1201.85" y2="818.917" gradientUnits="userSpaceOnUse">
<stop stop-color="#333333"/>
<stop offset="1" stop-color="#333333" stop-opacity="0"/>
</linearGradient>
<linearGradient id="paint30_linear_104_13758" x1="1201.86" y1="386.586" x2="1201.86" y2="781.488" gradientUnits="userSpaceOnUse">
<stop stop-color="#333333"/>
<stop offset="1" stop-color="#333333" stop-opacity="0"/>
</linearGradient>
<linearGradient id="paint31_linear_104_13758" x1="1201.85" y1="378.119" x2="1201.85" y2="754.268" gradientUnits="userSpaceOnUse">
<stop stop-color="#333333"/>
<stop offset="1" stop-color="#333333" stop-opacity="0"/>
</linearGradient>
<linearGradient id="paint32_linear_104_13758" x1="1201.88" y1="378.774" x2="1201.88" y2="731.898" gradientUnits="userSpaceOnUse">
<stop stop-color="#333333"/>
<stop offset="1" stop-color="#333333" stop-opacity="0"/>
</linearGradient>
<linearGradient id="paint33_linear_104_13758" x1="1201.86" y1="371.016" x2="1201.86" y2="713.711" gradientUnits="userSpaceOnUse">
<stop stop-color="#333333"/>
<stop offset="1" stop-color="#333333" stop-opacity="0"/>
</linearGradient>
<linearGradient id="paint34_linear_104_13758" x1="1201.86" y1="361.131" x2="1201.86" y2="707.193" gradientUnits="userSpaceOnUse">
<stop stop-color="#333333"/>
<stop offset="1" stop-color="#333333" stop-opacity="0"/>
</linearGradient>
<linearGradient id="paint35_linear_104_13758" x1="1201.85" y1="347.59" x2="1201.85" y2="696.208" gradientUnits="userSpaceOnUse">
<stop stop-color="#333333"/>
<stop offset="1" stop-color="#333333" stop-opacity="0"/>
</linearGradient>
<linearGradient id="paint36_linear_104_13758" x1="1201.86" y1="329.118" x2="1201.86" y2="685.337" gradientUnits="userSpaceOnUse">
<stop stop-color="#333333"/>
<stop offset="1" stop-color="#333333" stop-opacity="0"/>
</linearGradient>
<linearGradient id="paint37_linear_104_13758" x1="1201.89" y1="286.911" x2="1201.89" y2="674.014" gradientUnits="userSpaceOnUse">
<stop stop-color="#333333"/>
<stop offset="1" stop-color="#333333" stop-opacity="0"/>
</linearGradient>
<linearGradient id="paint38_linear_104_13758" x1="1201.86" y1="238.667" x2="1201.86" y2="660.766" gradientUnits="userSpaceOnUse">
<stop stop-color="#333333"/>
<stop offset="1" stop-color="#333333" stop-opacity="0"/>
</linearGradient>
<linearGradient id="paint39_linear_104_13758" x1="1201.86" y1="191.308" x2="1201.86" y2="645.201" gradientUnits="userSpaceOnUse">
<stop stop-color="#333333"/>
<stop offset="1" stop-color="#333333" stop-opacity="0"/>
</linearGradient>
<linearGradient id="paint40_linear_104_13758" x1="1201.85" y1="146.244" x2="1201.85" y2="624.594" gradientUnits="userSpaceOnUse">
<stop stop-color="#333333"/>
<stop offset="1" stop-color="#333333" stop-opacity="0"/>
</linearGradient>
<linearGradient id="paint41_linear_104_13758" x1="1201.85" y1="104.164" x2="1201.85" y2="590.42" gradientUnits="userSpaceOnUse">
<stop stop-color="#333333"/>
<stop offset="1" stop-color="#333333" stop-opacity="0"/>
</linearGradient>
<linearGradient id="paint42_linear_104_13758" x1="1201.86" y1="82.6761" x2="1201.86" y2="544.769" gradientUnits="userSpaceOnUse">
<stop stop-color="#333333"/>
<stop offset="1" stop-color="#333333" stop-opacity="0"/>
</linearGradient>
<linearGradient id="paint43_linear_104_13758" x1="1201.86" y1="64.8043" x2="1201.86" y2="498.066" gradientUnits="userSpaceOnUse">
<stop stop-color="#333333"/>
<stop offset="1" stop-color="#333333" stop-opacity="0"/>
</linearGradient>
<linearGradient id="paint44_linear_104_13758" x1="1201.86" y1="48.1068" x2="1201.86" y2="451.17" gradientUnits="userSpaceOnUse">
<stop stop-color="#333333"/>
<stop offset="1" stop-color="#333333" stop-opacity="0"/>
</linearGradient>
<linearGradient id="paint45_linear_104_13758" x1="1201.88" y1="34.7858" x2="1201.88" y2="404.148" gradientUnits="userSpaceOnUse">
<stop stop-color="#333333"/>
<stop offset="1" stop-color="#333333" stop-opacity="0"/>
</linearGradient>
<linearGradient id="paint46_linear_104_13758" x1="1201.85" y1="23.7311" x2="1201.85" y2="355.958" gradientUnits="userSpaceOnUse">
<stop stop-color="#333333"/>
<stop offset="1" stop-color="#333333" stop-opacity="0"/>
</linearGradient>
<linearGradient id="paint47_linear_104_13758" x1="1201.88" y1="16.2317" x2="1201.88" y2="308.042" gradientUnits="userSpaceOnUse">
<stop stop-color="#333333"/>
<stop offset="1" stop-color="#333333" stop-opacity="0"/>
</linearGradient>
<linearGradient id="paint48_linear_104_13758" x1="1201.86" y1="9.97388" x2="1201.86" y2="260.728" gradientUnits="userSpaceOnUse">
<stop stop-color="#333333"/>
<stop offset="1" stop-color="#333333" stop-opacity="0"/>
</linearGradient>
<linearGradient id="paint49_linear_104_13758" x1="1201.86" y1="5.95312" x2="1201.86" y2="208.371" gradientUnits="userSpaceOnUse">
<stop stop-color="#333333"/>
<stop offset="1" stop-color="#333333" stop-opacity="0"/>
</linearGradient>
<linearGradient id="paint50_linear_104_13758" x1="1201.86" y1="3.35132" x2="1201.86" y2="163.609" gradientUnits="userSpaceOnUse">
<stop stop-color="#333333"/>
<stop offset="1" stop-color="#333333" stop-opacity="0"/>
</linearGradient>
<linearGradient id="paint51_linear_104_13758" x1="1201.86" y1="1.97974" x2="1201.86" y2="120.277" gradientUnits="userSpaceOnUse">
<stop stop-color="#333333"/>
<stop offset="1" stop-color="#333333" stop-opacity="0"/>
</linearGradient>
<linearGradient id="paint52_linear_104_13758" x1="1201.86" y1="0.92749" x2="1201.86" y2="78.4678" gradientUnits="userSpaceOnUse">
<stop stop-color="#333333"/>
<stop offset="1" stop-color="#333333" stop-opacity="0"/>
</linearGradient>
<linearGradient id="paint53_linear_104_13758" x1="1201.86" y1="0.338135" x2="1201.86" y2="37.9212" gradientUnits="userSpaceOnUse">
<stop stop-color="#333333"/>
<stop offset="1" stop-color="#333333" stop-opacity="0"/>
</linearGradient>
<linearGradient id="paint54_linear_104_13758" x1="1201.86" y1="0" x2="1201.86" y2="2.67829" gradientUnits="userSpaceOnUse">
<stop stop-color="#333333"/>
<stop offset="1" stop-color="#333333" stop-opacity="0"/>
</linearGradient>
</defs>
</svg>
