<svg width="1923" height="1284" viewBox="0 0 1923 1284" fill="none" xmlns="http://www.w3.org/2000/svg">
<path d="M0 1283.4C640.676 1280.68 1281.5 1279.47 1922.18 1283.4" stroke="url(#paint0_linear_121_1830)" stroke-miterlimit="10"/>
<path d="M0 1257.82C185.478 1245.41 373.8 1241.18 559.534 1250.98C635.396 1254.98 711.463 1256.95 787.351 1252.75C870.107 1248.16 948.891 1229.84 1030.55 1218.66C1175.76 1198.76 1323 1245.51 1467.6 1253.31C1619.91 1261.54 1769.48 1240.15 1922.18 1259.65" stroke="url(#paint1_linear_121_1830)" stroke-miterlimit="10"/>
<path d="M0 1229.25C192.654 1207.94 392.33 1204.04 585.445 1223.17C662.87 1230.84 740.937 1234.9 818.49 1226.76C910.012 1217.2 989.436 1181.96 1077.5 1160.44C1224.58 1124.5 1369.8 1211.76 1514.19 1225.94C1577.57 1232.18 1640.31 1218.56 1703.54 1214.48C1778.3 1209.63 1849.62 1217.35 1922.18 1235.9" stroke="url(#paint2_linear_121_1830)" stroke-miterlimit="10"/>
<path d="M0 1198.27C198.574 1169.47 402.735 1173 601.463 1199.71C679.657 1210.2 757.903 1215.97 836.277 1203.81C877.052 1197.47 916.829 1186.83 955.734 1173.11C1008.63 1154.46 1057.4 1120.19 1109.87 1103.06C1257.11 1054.97 1396.84 1177.67 1536.46 1199.6C1600.54 1209.66 1659 1188.8 1722.12 1181.6C1792.42 1173.57 1856.44 1187.32 1922.21 1212.17" stroke="url(#paint3_linear_121_1830)" stroke-miterlimit="10"/>
<path d="M0 1165.34C194.397 1131.25 392.996 1141.92 586.701 1176.42C670.764 1191.39 754.956 1201.27 839.532 1184.09C946.917 1162.26 1026.11 1097.65 1124.42 1056.35C1283.86 989.386 1410.83 1151.84 1559.55 1176.54C1618.27 1186.29 1666.68 1161.41 1722.89 1150.56C1795.03 1136.63 1857.36 1157.13 1922.18 1188.45" stroke="url(#paint4_linear_121_1830)" stroke-miterlimit="10"/>
<path d="M0 1130.99C194.55 1091.03 385.384 1114.68 577.064 1157.95C661.384 1176.98 745.934 1187.39 830.997 1166.34C875.156 1155.41 916.88 1137.58 957.169 1116.65C1017.47 1085.34 1070.83 1033.01 1131.34 1005.03C1293.99 929.804 1410.03 1119.5 1554.71 1151C1620.55 1165.34 1664.35 1133.84 1725.07 1118.37C1797.24 1100.01 1860.16 1129.63 1922.18 1164.69" stroke="url(#paint5_linear_121_1830)" stroke-miterlimit="10"/>
<path d="M0 1095.78C190.706 1050.46 365.624 1088.29 550.41 1138.64C636.216 1162 721.971 1176.13 809.34 1151.9C855.575 1139.07 898.606 1117.94 939.921 1093.85C1004.66 1056.12 1060.51 995.978 1125.68 961.762C1296.86 871.915 1398.37 1092.21 1546.3 1127.3C1615.84 1143.79 1656.56 1105.98 1718.48 1086.47C1793.42 1062.84 1860.03 1102.09 1922.15 1140.94" stroke="url(#paint6_linear_121_1830)" stroke-miterlimit="10"/>
<path d="M0 1060.18C182.12 1009.96 336.792 1059.56 509.378 1116.35C594.979 1144.51 680.349 1165.59 769.564 1142.51C905.296 1107.4 993.767 1000.54 1107.84 928.547C1293.09 811.666 1375.64 1071.95 1537.26 1105.09C1607.22 1119.45 1646.8 1074.8 1708.64 1053.23C1786.96 1025.91 1859.26 1075.1 1922.18 1117.14" stroke="url(#paint7_linear_121_1830)" stroke-miterlimit="10"/>
<path d="M0 1024.76C176.712 967.636 312.393 1031.83 474.676 1095.47C562.302 1129.81 650.927 1157.67 744.294 1129.27C882.717 1087.18 972.931 972.535 1087.36 892.793C1281.91 757.239 1345.78 1046.89 1512.88 1080.95C1584 1095.44 1627.91 1045.89 1688.8 1021.7C1774.81 987.539 1853.78 1045.68 1922.18 1093.47" stroke="url(#paint8_linear_121_1830)" stroke-miterlimit="10"/>
<path d="M0 989.976C79.1682 959.787 156.44 952.836 238.325 977.203C313.93 999.696 378.849 1045.12 450.2 1077.26C534.469 1115.22 621.044 1148.51 713.257 1118.27C859.727 1070.23 947.891 939.781 1067.43 853.242C1260.98 713.098 1317.28 1011.83 1476.18 1052.12C1556.63 1072.51 1603.25 1013.39 1671.66 986.359C1764.1 949.81 1850.47 1018.04 1922.18 1069.72" stroke="url(#paint9_linear_121_1830)" stroke-miterlimit="10"/>
<path d="M0 956.402C71.2488 924.11 142.241 914.056 217.488 939.294C291.608 964.147 351.81 1016.47 420.086 1052.69C499.511 1094.83 581.242 1137.12 672.635 1110.14C825.871 1064.95 922.057 918.442 1040.98 823.644C1243.75 661.98 1277.4 987.077 1443.53 1024.5C1528.77 1043.71 1581.85 975.151 1655.05 948.425C1753.52 912.491 1847.96 991.002 1922.15 1045.94" stroke="url(#paint10_linear_121_1830)" stroke-miterlimit="10"/>
<path d="M0 924.52C164.667 836.032 263.569 940.705 397.686 1025.29C473.856 1073.33 555.869 1128.91 649.21 1097.98C800.37 1047.89 899.811 897.281 1014.4 797.123C1088.36 732.488 1159.18 717.484 1222.53 799.252C1277.48 870.145 1312.77 972.252 1410.55 992.797C1495.69 1010.67 1555.81 940.499 1628.86 911.901C1736.34 869.786 1842.76 961.865 1922.18 1022.22" stroke="url(#paint11_linear_121_1830)" stroke-miterlimit="10"/>
<path d="M0 894.87C159.49 794.558 258.879 898.718 384.667 993.259C451.764 1043.68 527.728 1113.53 618.378 1089.85C673.558 1075.44 722.484 1034.48 764.618 998.312C845.606 928.829 912.831 846.856 989.718 773.449C1063.43 703.069 1136.09 675.369 1199.29 768.217C1246.39 837.417 1282.53 944.321 1377.23 959.428C1467.26 973.791 1533.16 896.486 1612.12 869.76C1726.02 831.185 1840.83 934.857 1922.18 998.414" stroke="url(#paint12_linear_121_1830)" stroke-miterlimit="10"/>
<path d="M0 867.99C62.1761 823.233 130.785 795.148 206.545 822.413C274 846.702 326.437 903.129 378.285 950.143C436.719 1003.13 510.531 1097.21 600.233 1078.72C650.722 1068.31 695.137 1029.63 732.863 996.696C816.132 923.982 889.124 839.751 963.986 758.727C1034.06 682.858 1111.71 628.278 1177.07 733.873C1221.07 804.946 1255.23 917.364 1355.03 921.314C1443.61 924.828 1510.17 854.038 1590 827.927C1712.46 787.89 1836.68 905.566 1922.21 974.689" stroke="url(#paint13_linear_121_1830)" stroke-miterlimit="10"/>
<path d="M0 843.316C63.8164 793.558 134.911 760.522 215.515 789.198C283.534 813.384 339.867 868.529 390.151 918.108C442.435 969.688 512.607 1071 598.208 1053.71C646.109 1044.04 688.243 1005.29 723.56 973.843C804.317 901.898 876.437 819.874 949.403 740.286C1016.22 667.418 1094.69 600.988 1160.97 706.096C1204.34 774.86 1237.27 884.611 1335.2 885.97C1423 887.176 1496.23 823.387 1578.21 801.535C1705.82 767.499 1830.53 879.071 1922.18 950.348" stroke="url(#paint14_linear_121_1830)" stroke-miterlimit="10"/>
<path d="M0 815.821C70.4031 760.394 145.522 730.59 231.584 769.063C302.756 800.894 365.086 861.117 420.163 914.44C469.576 962.301 530.804 1043.07 608.716 1017.91C656.258 1002.54 697.598 961.506 733.068 928.521C804.163 862.425 870.235 790.839 937.306 720.716C1001.23 653.85 1078.78 588.804 1147.49 682.037C1196.37 748.365 1227.48 854.448 1325.05 859.296C1411.96 863.605 1495.99 806.228 1579.78 790.839C1706.49 767.55 1824.33 854.961 1922.21 922.314" stroke="url(#paint15_linear_121_1830)" stroke-miterlimit="10"/>
<path d="M0 785.274C75.7083 727.461 152.852 702.043 241.298 747.698C309.061 782.657 371.596 838.956 427.339 890.331C479.289 938.217 543.08 1020.73 621.582 984.205C662.563 965.148 696.291 928.855 728.481 898.153C796.193 833.519 860.24 764.985 926.363 698.76C994.767 630.253 1072.27 577.134 1143.24 668.213C1192.08 730.924 1227.27 829.646 1319.9 833.75C1405.11 837.546 1489.77 796.687 1572.93 783.093C1701.31 762.113 1815.28 827.62 1922.21 890.741" stroke="url(#paint16_linear_121_1830)" stroke-miterlimit="10"/>
<path d="M0 752.238C87.3182 689.194 170.613 674.933 263.595 733.591C330.41 775.732 392.176 832.826 451.969 884.303C501.894 927.29 558.047 994.772 627.912 955.683C665.331 934.754 696.47 897.435 726.277 867.247C789.734 802.945 851.526 737.08 916.829 674.625C984.489 609.913 1061.94 563.207 1133.96 644.975C1187.73 706.019 1224.97 803.382 1317.36 812.205C1398.78 819.976 1487.51 788.121 1567.6 775.707C1695.59 755.88 1808.21 801.15 1922.15 856.423" stroke="url(#paint17_linear_121_1830)" stroke-miterlimit="10"/>
<path d="M0 717.33C94.5969 653.644 181.582 646.822 276.384 713.457C347.915 763.729 412.192 827.26 480.212 882.354C526.985 920.211 578.73 972.124 637.19 928.624C675.839 899.872 707.388 856.551 739.476 821.259C793.732 761.625 849.347 702.787 909.038 648.566C982.183 582.11 1061.5 550.716 1135.16 630.817C1189.09 689.45 1230.4 780.964 1319 790.89C1402.86 800.278 1493.53 778.246 1576.6 766.832C1698.75 750.058 1807.46 777.374 1922.18 819.874" stroke="url(#paint18_linear_121_1830)" stroke-miterlimit="10"/>
<path d="M0 681.088C107.847 613.607 199.522 620.788 298.527 699.889C373.646 759.907 437.668 829.748 515.964 886.381C569.683 925.213 608.409 947.142 657.437 893.024C740.757 801.047 808.238 696.221 905.86 616.915C977.518 558.719 1056.35 537.02 1127.76 604.758C1188.09 661.98 1228.68 749.827 1315.77 770.449C1396.17 789.454 1497.07 770.705 1577.9 759.676C1697.21 743.389 1804.88 752.956 1922.21 781.888" stroke="url(#paint19_linear_121_1830)" stroke-miterlimit="10"/>
<path d="M0 644.129C120.764 573.62 219.103 596.525 320.927 686.782C393.868 751.443 454.532 826.311 537.313 879.43C598.08 918.442 630.065 925.341 671.635 863.22C737.502 764.806 803.805 664.212 899.76 591.626C977.339 532.916 1055.94 519.733 1131.75 587.419C1194.88 643.795 1239.81 734.489 1329.07 754.444C1408.24 772.141 1500.63 763.729 1580.44 752.854C1696.31 737.054 1805.16 729.924 1922.21 742.979" stroke="url(#paint20_linear_121_1830)" stroke-miterlimit="10"/>
<path d="M0 607.041C131.631 534.327 234.609 570.158 338.944 669.649C412.782 740.055 473.651 826.055 564.557 875.967C632.038 913.03 655.72 893.768 687.91 830.236C739.117 729.206 803.881 627.098 898.735 561.283C979.031 505.549 1060.25 503.83 1135.68 567.875C1201.47 623.764 1249.39 712.098 1337.53 736.874C1526.57 790.018 1732.29 710.585 1922.21 703.993" stroke="url(#paint21_linear_121_1830)" stroke-miterlimit="10"/>
<path d="M0 570.389C65.4823 535.481 127.043 514.757 200.317 540.175C260.93 561.207 310.573 605.348 355.04 650.31C428.39 724.537 491.104 824.413 588.828 868.529C662.127 901.616 679.478 857.039 704.21 794.84C744.525 693.374 805.394 589.42 900.503 530.018C1107.79 400.517 1182.6 662.545 1347.53 719.356C1540.13 785.71 1733.86 701.992 1922.21 665.494" stroke="url(#paint22_linear_121_1830)" stroke-miterlimit="10"/>
<path d="M0 534.763C68.3015 498.598 131.246 478.438 205.853 505.908C268.439 528.94 319.031 576.006 364.369 623.687C435.669 698.658 509.403 828.44 615.764 858.295C690.217 879.199 701.955 809.486 720.818 753.366C753.828 655.132 810.724 546.818 905.911 494.853C1103.51 386.975 1203.03 629.535 1352.22 698.094C1547.94 788.043 1737.47 695.811 1922.18 628.15" stroke="url(#paint23_linear_121_1830)" stroke-miterlimit="10"/>
<path d="M0 500.778C68.9678 463.228 131.093 442.838 207.006 469.435C269.951 491.493 321.389 540.713 366.137 588.676C438.744 666.52 516.58 814.385 629.476 836.443C706.209 851.447 716.973 774.732 733.735 717.125C762.516 618.3 814.338 508.909 913.805 462.946C1111.69 371.509 1218.41 604.373 1364.36 679.678C1440.35 718.869 1538.74 738.952 1623.4 725.307C1730.71 708.02 1828.84 644.385 1922.21 592.754" stroke="url(#paint24_linear_121_1830)" stroke-miterlimit="10"/>
<path d="M0 468.974C73.4529 426.474 144.445 401.979 225.766 438.708C286.789 466.281 335.203 516.963 378.951 566.157C444.511 639.871 527.139 795.174 637.421 806.818C720.433 815.59 730.915 724.871 748.702 663.622C776.202 568.952 825.717 467.461 925.389 430.937C1121.78 358.941 1235.35 574.826 1377.05 659.185C1448.66 701.813 1542.25 731.001 1626.01 720.562C1738.21 706.558 1835.32 625.303 1922.15 559.77" stroke="url(#paint25_linear_121_1830)" stroke-miterlimit="10"/>
<path d="M0 439.965C69.3523 395.747 137.628 364.968 219.564 398.081C285.226 424.627 337.509 480.977 382.616 533.634C447.099 608.913 528.19 763.472 642.751 766.191C724.431 768.114 739.553 676.087 758.826 614.633C788.632 519.681 835.764 427.577 940.305 400.723C1140.49 349.271 1251.65 546.664 1394.89 641.359C1465.01 687.731 1558.53 725.974 1643.95 713.637C1755.67 697.478 1845.42 604.553 1922.18 530.018" stroke="url(#paint26_linear_121_1830)" stroke-miterlimit="10"/>
<path d="M0 414.342C63.6626 368.149 129.786 329.445 210.748 356.581C273.847 377.716 323.541 429.475 366.009 478.566C435.566 558.949 505.533 701.941 625.272 711.072C716.307 717.997 739.963 629.458 766.155 559.411C801.882 463.844 851.68 382.922 961.09 368.123C1155.05 341.884 1266.82 508.781 1401.58 613.838C1469.14 666.494 1560.61 716.92 1649 708.302C1766.25 696.862 1852.55 587.753 1922.18 504.112" stroke="url(#paint27_linear_121_1830)" stroke-miterlimit="10"/>
<path d="M0 394.131C63.3551 349.887 128.684 313.466 208.031 339.32C269.823 359.454 319.005 408.93 360.96 456.534C428.544 533.172 500.074 680.293 616.379 684.32C706.312 687.424 737.092 607.708 769.334 537.635C810.673 447.839 866.621 365.635 972.726 351.298C1159.89 326.008 1276.81 481.926 1409.65 581.648C1474.82 630.561 1566.76 680.319 1650.46 678.677C1767.48 676.369 1854.16 564.977 1922.18 483.67" stroke="url(#paint28_linear_121_1830)" stroke-miterlimit="10"/>
<path d="M0 380.306C62.3555 337.601 126.736 302.18 204.52 325.726C264.62 343.911 313.085 390.232 354.373 435.579C420.881 508.652 492.104 654.234 604.641 654.927C692.882 655.465 730.454 585.188 768.975 516.732C816.03 433.117 877.796 352.888 980.133 338.832C1160.54 314.081 1282.4 453.918 1415.31 546.997C1479.85 592.19 1570.78 642.615 1650.64 649.746C1767.07 660.133 1855.16 547.638 1922.15 469.256" stroke="url(#paint29_linear_121_1830)" stroke-miterlimit="10"/>
<path d="M0 371.74C59.8183 330.83 123.763 295.46 198.472 314.44C262.16 330.599 312.752 378.793 356.116 425.448C422.034 496.367 488.131 628.098 598.259 623.199C681.58 619.506 724.047 556.205 767.565 493.904C821.002 417.369 885.51 345.603 983.362 331.702C1161.05 306.438 1285.53 427.32 1423.77 513.551C1487.64 553.409 1568.68 600.68 1642.26 619.737C1761.54 650.618 1852.37 538.764 1922.18 459.766" stroke="url(#paint30_linear_121_1830)" stroke-miterlimit="10"/>
<path d="M0 367.328C58.178 327.034 120.764 290.895 194.243 305.848C255.419 318.313 305.14 361.198 347.761 404.262C414.601 471.769 476.829 593.011 583.523 588.266C664.459 584.675 713.129 531.377 762.644 473.95C821.976 405.16 890.456 339.807 984.541 326.111C1154.72 301.334 1285.12 397.978 1424.98 474.873C1494.38 513.038 1567.37 559.693 1640.23 590.574C1757.54 640.307 1849.75 532.685 1922.15 454.174" stroke="url(#paint31_linear_121_1830)" stroke-miterlimit="10"/>
<path d="M0 365.969C122.404 279.122 228.278 279.558 339.431 382.538C407.682 445.762 465.68 554.281 568.632 550.588C646.929 547.767 701.365 504.574 756.545 453.867C821.565 394.131 893.199 336.344 983.541 322.904C1145.7 298.769 1282.99 368.662 1424.1 434.964C1501.79 471.462 1564.63 517.245 1636.98 561.643C1751.23 631.74 1844.5 531.659 1922.21 451.507" stroke="url(#paint32_linear_121_1830)" stroke-miterlimit="10"/>
<path d="M0 366.559C113.921 283.046 218.77 266.836 331.589 359.787C401.633 417.497 455.582 512.038 554.357 510.089C718.819 506.857 820.105 345.655 980.85 321.34C1134.83 298.051 1279.48 339.345 1421.11 394.054C1507.68 427.5 1562.19 474.873 1632.42 532.659C1742.57 623.302 1836.19 534.634 1922.18 450.584" stroke="url(#paint33_linear_121_1830)" stroke-miterlimit="10"/>
<path d="M0 367.995C104.182 288.535 208.211 254.884 322.004 333.6C392.355 382.255 443.947 463.562 534.853 466.691C698.315 472.359 819.951 344.218 976.826 319.724C1119.96 297.384 1272.94 309.772 1411.03 351.221C1509.35 380.742 1559.55 434.425 1628.86 506.087C1654.74 532.865 1683.86 560.745 1722.73 564.951C1800.08 573.287 1872.43 496.572 1922.18 450.507" stroke="url(#paint34_linear_121_1830)" stroke-miterlimit="10"/>
<path d="M0 369.175C96.9291 292.28 200.471 243.419 316.801 307.797C388.767 347.63 438.821 415.24 524.653 420.241C684.347 429.552 818.874 343.911 972.495 320.032C1110.3 298.615 1266.46 280.764 1404.09 310.311C1509.96 333.036 1557.58 396.413 1621.76 477.412C1646.33 508.447 1674.17 544.15 1714.79 553.896C1793.27 572.723 1870.69 495.34 1922.15 450.224" stroke="url(#paint35_linear_121_1830)" stroke-miterlimit="10"/>
<path d="M0 368.97C94.5969 290.997 199.727 230.646 321.517 282.662C387.922 311.029 437.334 363.019 511.223 370.252C670.021 385.821 814.415 343.577 969.471 320.801C1051.18 308.798 1131.68 296.897 1212.69 280.558C1275.66 267.862 1336.86 261.271 1400.89 270.453C1511.5 286.304 1558.22 365.404 1615.58 451.584C1638.54 486.081 1666.15 528.915 1707.87 542.637C1787.83 568.952 1867.59 494.058 1922.18 448.583" stroke="url(#paint36_linear_121_1830)" stroke-miterlimit="10"/>
<path d="M0 366.302C91.1113 288.792 196.293 216.975 320.825 250.19C386.845 267.811 440.128 308.798 508.737 317.467C665.254 337.216 810.263 341.705 966.652 319.904C1049.46 308.362 1127.09 291.357 1206.08 263.964C1266.9 242.88 1325.25 225.593 1390.45 230.21C1506.55 238.418 1553.71 331.856 1606.12 422.601C1628.45 461.254 1655.41 510.986 1698.67 529.787C1780.17 565.208 1864.16 490.775 1922.23 444.684" stroke="url(#paint37_linear_121_1830)" stroke-miterlimit="10"/>
<path d="M0 360.069C89.8299 281.841 194.602 201.945 320.62 214.051C388.28 220.54 450.2 252.55 517.374 262.45C670.918 285.098 805.983 336.78 963.704 317.518C1047.15 307.31 1122.14 285.509 1197.34 248.215C1253.98 220.13 1307.95 191.711 1372.85 190.891C1498.99 189.352 1546.64 299.615 1597.43 396.875C1619.37 438.888 1645.75 493.545 1690.44 516.065C1773.38 557.872 1860.82 484.235 1922.18 437.375" stroke="url(#paint38_linear_121_1830)" stroke-miterlimit="10"/>
<path d="M0 349.169C91.6752 268.401 196.729 183.299 323.977 174.886C392.586 170.346 464.809 190.762 531.573 204.613C681.733 235.75 806.752 330.471 966.216 313.235C1048.2 304.386 1120.61 277.686 1189.34 232.647C1244.8 196.302 1295.63 157.342 1364.49 153.315C1493.38 145.8 1540.59 273.864 1587.62 371.047C1609.97 417.189 1635.62 473.001 1681.7 500.316C1764.46 549.357 1859.88 471.872 1922.18 425.704" stroke="url(#paint39_linear_121_1830)" stroke-miterlimit="10"/>
<path d="M0 332.446C156.876 194.558 322.209 88.2445 535.776 139.901C687.807 176.681 804.907 319.724 969.855 306.233C1053.43 299.385 1123.83 265.81 1187.42 212.641C1237.22 171.013 1281.58 125.358 1349.52 117.997C1479.1 103.967 1526.6 235.135 1571.01 332.189C1595.26 385.154 1621.5 451.404 1674.12 482.952C1758.95 533.814 1857.47 455.662 1922.15 408.571" stroke="url(#paint40_linear_121_1830)" stroke-miterlimit="10"/>
<path d="M0 309.721C150.955 180.657 345.147 37.8961 556.33 97.0933C704.569 138.644 816.568 296.871 979.492 288.51C1060.97 284.329 1130.19 245.266 1187.7 189.916C1233.32 146.031 1274.1 96.529 1341.19 89.0909C1465.5 75.2663 1516.09 204.741 1559.89 296.794C1586.11 351.862 1613.58 419.267 1667.5 453.148C1753.85 507.395 1853.57 433.322 1922.15 385.513" stroke="url(#paint41_linear_121_1830)" stroke-miterlimit="10"/>
<path d="M0 285.97C151.493 162.395 350.375 25.9438 558.227 77.1899C711.002 114.842 832.022 271.863 997.432 261.117C1072.4 256.243 1135.21 219.797 1187.86 168.397C1229.86 127.384 1266.69 80.6525 1328.02 70.6239C1450.35 50.6179 1510.78 183.35 1558.25 271.376C1585.52 321.904 1615.09 380.46 1664.58 413.06C1751.13 470.077 1848.52 406.955 1922.18 359.505" stroke="url(#paint42_linear_121_1830)" stroke-miterlimit="10"/>
<path d="M0 262.22C154.364 143.004 362.933 11.1702 569.247 63.6987C719.254 101.89 847.656 245.214 1009.53 236.417C1078.55 232.672 1138.98 195.866 1187.24 149.032C1225.92 111.508 1260.34 66.8022 1315.9 55.0294C1436.3 29.5346 1505.55 163.293 1557.99 246.805C1589.51 296.999 1622.47 352.247 1676.6 380.64C1762.25 425.55 1847.45 375.972 1922.18 331.574" stroke="url(#paint43_linear_121_1830)" stroke-miterlimit="10"/>
<path d="M0 238.469C159.31 122.973 372.954 1.6802 579.063 52.7724C727.635 89.6039 861.496 222.31 1020.88 211.41C1085.08 207.024 1139.96 174.732 1185.83 131.565C1224.4 95.2723 1259.05 51.0283 1314.16 40.8458C1428.64 19.6599 1503.22 145.262 1559.09 223.08C1591.16 267.734 1625.14 313.286 1674.01 340.346C1759.05 387.385 1844.75 344.321 1922.18 302.052" stroke="url(#paint44_linear_121_1830)" stroke-miterlimit="10"/>
<path d="M0 214.718C160.412 106.609 367.393 2.2444 568.53 40.1788C724.201 69.5466 864.879 199.739 1028.37 188.274C1090.36 183.914 1143.16 152.264 1188.32 111.585C1225.25 78.2928 1258.8 39.9223 1309.98 30.2528C1415.93 10.2211 1494.82 118.407 1553.04 189.095C1591.16 235.391 1632.8 286.201 1689.83 309.875C1770.46 343.346 1849.83 307.592 1922.21 271.325" stroke="url(#paint45_linear_121_1830)" stroke-miterlimit="10"/>
<path d="M0 190.968C164.41 89.2448 375.671 -4.09079 574.937 34.0488C726.84 63.1344 874.438 178.656 1033.31 166.935C1148.69 158.419 1199.06 45.2316 1303.06 22.3017C1407.63 -0.730813 1492.77 101.197 1557.04 167.166C1595.69 206.844 1636.03 248.523 1688.21 270.068C1769 303.411 1847.39 273.838 1922.15 239.726" stroke="url(#paint46_linear_121_1830)" stroke-miterlimit="10"/>
<path d="M0 167.217C168.742 72.804 376.004 -3.83426 573.399 27.9445C726.533 52.5929 876.847 157.316 1035.41 145.441C1144.34 137.285 1202.57 35.5878 1303.11 15.8639C1401.14 -3.34694 1485.49 77.5747 1552.81 136.695C1594.38 173.219 1637.16 211.538 1689.52 231.826C1769.71 262.912 1846.42 239.059 1922.21 207.691" stroke="url(#paint47_linear_121_1830)" stroke-miterlimit="10"/>
<path d="M0 143.466C171.279 58.5177 376.235 -4.21903 570.067 23.4303C723.304 45.283 877.181 135.874 1034.44 124.46C1138.96 116.868 1206.57 28.637 1305.26 10.6829C1402.63 -7.04038 1491.3 66.084 1564.12 119.51C1603.66 148.519 1644.87 177.861 1691.52 194.379C1771.92 222.849 1845.29 204.074 1922.18 175.553" stroke="url(#paint48_linear_121_1830)" stroke-miterlimit="10"/>
<path d="M0 119.716C173.099 45.6421 375.184 -3.96251 565.198 19.5317C718.69 38.5117 874.003 114.252 1030.42 103.89C1133.06 97.0933 1211.54 23.302 1310.57 7.22032C1401.96 -7.60463 1488.13 47.5914 1562.91 92.5279C1684.47 165.575 1784.78 188.634 1922.18 143.62" stroke="url(#paint49_linear_121_1830)" stroke-miterlimit="10"/>
<path d="M0 95.9647C174.124 34.0744 365.804 -0.012692 551.23 15.6587C707.926 28.919 863.751 90.835 1022.06 82.8839C1128.24 77.549 1219.23 14.6071 1323.74 3.93721C1410.09 -4.88595 1491.59 34.3822 1567.55 70.2904C1689.39 127.923 1789.83 149.673 1922.18 112.354" stroke="url(#paint50_linear_121_1830)" stroke-miterlimit="10"/>
<path d="M0 72.2141C177.251 23.0199 366.496 0.115641 550.538 13.1708C704.133 24.0715 858.318 69.8544 1012.94 63.2114C1121.53 58.5434 1222.87 12.3244 1330.61 2.8344C1421.29 -5.14234 1506.43 26.5081 1590.75 55.6964C1704 94.9132 1803.8 109.507 1922.18 82.1145" stroke="url(#paint51_linear_121_1830)" stroke-miterlimit="10"/>
<path d="M0 48.489C174.662 14.6327 355.603 1.26975 533.495 9.22084C688.397 16.146 843.12 46.514 998.457 42.4103C1117.38 39.2811 1233.4 7.55368 1352.06 1.37234C1436.74 -3.03923 1518.6 16.4794 1600.54 35.4338C1709.66 60.6721 1810.82 72.4192 1922.18 53.2084" stroke="url(#paint52_linear_121_1830)" stroke-miterlimit="10"/>
<path d="M0 24.7383C173.278 6.78425 348.325 1.26978 522.5 5.19403C675.634 8.65661 828.69 23.9176 981.952 21.8657C1112.3 20.1216 1241.98 3.809 1372.28 0.577268C1557.09 -4.01385 1736.81 44.7187 1922.18 26.0464" stroke="url(#paint53_linear_121_1830)" stroke-miterlimit="10"/>
<path d="M0 0.987641C640.701 -2.55188 1281.48 4.86059 1922.18 0.987641" stroke="url(#paint54_linear_121_1830)" stroke-miterlimit="10"/>
<defs>
<linearGradient id="paint0_linear_121_1830" x1="961.09" y1="1280.89" x2="961.09" y2="1283.4" gradientUnits="userSpaceOnUse">
<stop stop-color="#333333"/>
<stop offset="1" stop-color="#333333" stop-opacity="0"/>
</linearGradient>
<linearGradient id="paint1_linear_121_1830" x1="961.09" y1="1213.77" x2="961.09" y2="1259.65" gradientUnits="userSpaceOnUse">
<stop stop-color="#333333"/>
<stop offset="1" stop-color="#333333" stop-opacity="0"/>
</linearGradient>
<linearGradient id="paint2_linear_121_1830" x1="961.09" y1="1151.83" x2="961.09" y2="1235.9" gradientUnits="userSpaceOnUse">
<stop stop-color="#333333"/>
<stop offset="1" stop-color="#333333" stop-opacity="0"/>
</linearGradient>
<linearGradient id="paint3_linear_121_1830" x1="961.103" y1="1091.98" x2="961.103" y2="1212.17" gradientUnits="userSpaceOnUse">
<stop stop-color="#333333"/>
<stop offset="1" stop-color="#333333" stop-opacity="0"/>
</linearGradient>
<linearGradient id="paint4_linear_121_1830" x1="961.09" y1="1040.29" x2="961.09" y2="1193.16" gradientUnits="userSpaceOnUse">
<stop stop-color="#333333"/>
<stop offset="1" stop-color="#333333" stop-opacity="0"/>
</linearGradient>
<linearGradient id="paint5_linear_121_1830" x1="961.09" y1="987.529" x2="961.09" y2="1177.97" gradientUnits="userSpaceOnUse">
<stop stop-color="#333333"/>
<stop offset="1" stop-color="#333333" stop-opacity="0"/>
</linearGradient>
<linearGradient id="paint6_linear_121_1830" x1="961.077" y1="940.39" x2="961.077" y2="1164.52" gradientUnits="userSpaceOnUse">
<stop stop-color="#333333"/>
<stop offset="1" stop-color="#333333" stop-opacity="0"/>
</linearGradient>
<linearGradient id="paint7_linear_121_1830" x1="961.09" y1="898.566" x2="961.09" y2="1152.36" gradientUnits="userSpaceOnUse">
<stop stop-color="#333333"/>
<stop offset="1" stop-color="#333333" stop-opacity="0"/>
</linearGradient>
<linearGradient id="paint8_linear_121_1830" x1="961.09" y1="856.902" x2="961.09" y2="1141" gradientUnits="userSpaceOnUse">
<stop stop-color="#333333"/>
<stop offset="1" stop-color="#333333" stop-opacity="0"/>
</linearGradient>
<linearGradient id="paint9_linear_121_1830" x1="961.09" y1="816.102" x2="961.09" y2="1130.03" gradientUnits="userSpaceOnUse">
<stop stop-color="#333333"/>
<stop offset="1" stop-color="#333333" stop-opacity="0"/>
</linearGradient>
<linearGradient id="paint10_linear_121_1830" x1="961.077" y1="778.852" x2="961.077" y2="1118.63" gradientUnits="userSpaceOnUse">
<stop stop-color="#333333"/>
<stop offset="1" stop-color="#333333" stop-opacity="0"/>
</linearGradient>
<linearGradient id="paint11_linear_121_1830" x1="961.09" y1="743.181" x2="961.09" y2="1106.91" gradientUnits="userSpaceOnUse">
<stop stop-color="#333333"/>
<stop offset="1" stop-color="#333333" stop-opacity="0"/>
</linearGradient>
<linearGradient id="paint12_linear_121_1830" x1="961.09" y1="709.009" x2="961.09" y2="1094.61" gradientUnits="userSpaceOnUse">
<stop stop-color="#333333"/>
<stop offset="1" stop-color="#333333" stop-opacity="0"/>
</linearGradient>
<linearGradient id="paint13_linear_121_1830" x1="961.103" y1="675.154" x2="961.103" y2="1081.09" gradientUnits="userSpaceOnUse">
<stop stop-color="#333333"/>
<stop offset="1" stop-color="#333333" stop-opacity="0"/>
</linearGradient>
<linearGradient id="paint14_linear_121_1830" x1="961.09" y1="651.51" x2="961.09" y2="1055.67" gradientUnits="userSpaceOnUse">
<stop stop-color="#333333"/>
<stop offset="1" stop-color="#333333" stop-opacity="0"/>
</linearGradient>
<linearGradient id="paint15_linear_121_1830" x1="961.103" y1="635.583" x2="961.103" y2="1022.65" gradientUnits="userSpaceOnUse">
<stop stop-color="#333333"/>
<stop offset="1" stop-color="#333333" stop-opacity="0"/>
</linearGradient>
<linearGradient id="paint16_linear_121_1830" x1="961.103" y1="619.781" x2="961.103" y2="993.268" gradientUnits="userSpaceOnUse">
<stop stop-color="#333333"/>
<stop offset="1" stop-color="#333333" stop-opacity="0"/>
</linearGradient>
<linearGradient id="paint17_linear_121_1830" x1="961.077" y1="601.353" x2="961.077" y2="967.424" gradientUnits="userSpaceOnUse">
<stop stop-color="#333333"/>
<stop offset="1" stop-color="#333333" stop-opacity="0"/>
</linearGradient>
<linearGradient id="paint18_linear_121_1830" x1="961.09" y1="583.23" x2="961.09" y2="945.147" gradientUnits="userSpaceOnUse">
<stop stop-color="#333333"/>
<stop offset="1" stop-color="#333333" stop-opacity="0"/>
</linearGradient>
<linearGradient id="paint19_linear_121_1830" x1="961.103" y1="562.773" x2="961.103" y2="925.357" gradientUnits="userSpaceOnUse">
<stop stop-color="#333333"/>
<stop offset="1" stop-color="#333333" stop-opacity="0"/>
</linearGradient>
<linearGradient id="paint20_linear_121_1830" x1="961.103" y1="541.901" x2="961.103" y2="909.33" gradientUnits="userSpaceOnUse">
<stop stop-color="#333333"/>
<stop offset="1" stop-color="#333333" stop-opacity="0"/>
</linearGradient>
<linearGradient id="paint21_linear_121_1830" x1="961.103" y1="519.643" x2="961.103" y2="894.712" gradientUnits="userSpaceOnUse">
<stop stop-color="#333333"/>
<stop offset="1" stop-color="#333333" stop-opacity="0"/>
</linearGradient>
<linearGradient id="paint22_linear_121_1830" x1="961.103" y1="494.498" x2="961.103" y2="879.768" gradientUnits="userSpaceOnUse">
<stop stop-color="#333333"/>
<stop offset="1" stop-color="#333333" stop-opacity="0"/>
</linearGradient>
<linearGradient id="paint23_linear_121_1830" x1="961.09" y1="467.598" x2="961.09" y2="862.09" gradientUnits="userSpaceOnUse">
<stop stop-color="#333333"/>
<stop offset="1" stop-color="#333333" stop-opacity="0"/>
</linearGradient>
<linearGradient id="paint24_linear_121_1830" x1="961.103" y1="441.989" x2="961.103" y2="838.349" gradientUnits="userSpaceOnUse">
<stop stop-color="#333333"/>
<stop offset="1" stop-color="#333333" stop-opacity="0"/>
</linearGradient>
<linearGradient id="paint25_linear_121_1830" x1="961.077" y1="416.475" x2="961.077" y2="807.41" gradientUnits="userSpaceOnUse">
<stop stop-color="#333333"/>
<stop offset="1" stop-color="#333333" stop-opacity="0"/>
</linearGradient>
<linearGradient id="paint26_linear_121_1830" x1="961.09" y1="384.161" x2="961.09" y2="766.22" gradientUnits="userSpaceOnUse">
<stop stop-color="#333333"/>
<stop offset="1" stop-color="#333333" stop-opacity="0"/>
</linearGradient>
<linearGradient id="paint27_linear_121_1830" x1="961.09" y1="347.596" x2="961.09" y2="711.454" gradientUnits="userSpaceOnUse">
<stop stop-color="#333333"/>
<stop offset="1" stop-color="#333333" stop-opacity="0"/>
</linearGradient>
<linearGradient id="paint28_linear_121_1830" x1="961.09" y1="330.701" x2="961.09" y2="684.408" gradientUnits="userSpaceOnUse">
<stop stop-color="#333333"/>
<stop offset="1" stop-color="#333333" stop-opacity="0"/>
</linearGradient>
<linearGradient id="paint29_linear_121_1830" x1="961.077" y1="318.197" x2="961.077" y2="654.93" gradientUnits="userSpaceOnUse">
<stop stop-color="#333333"/>
<stop offset="1" stop-color="#333333" stop-opacity="0"/>
</linearGradient>
<linearGradient id="paint30_linear_121_1830" x1="961.09" y1="309.173" x2="961.09" y2="624.996" gradientUnits="userSpaceOnUse">
<stop stop-color="#333333"/>
<stop offset="1" stop-color="#333333" stop-opacity="0"/>
</linearGradient>
<linearGradient id="paint31_linear_121_1830" x1="961.077" y1="302.401" x2="961.077" y2="603.227" gradientUnits="userSpaceOnUse">
<stop stop-color="#333333"/>
<stop offset="1" stop-color="#333333" stop-opacity="0"/>
</linearGradient>
<linearGradient id="paint32_linear_121_1830" x1="961.103" y1="302.925" x2="961.103" y2="585.337" gradientUnits="userSpaceOnUse">
<stop stop-color="#333333"/>
<stop offset="1" stop-color="#333333" stop-opacity="0"/>
</linearGradient>
<linearGradient id="paint33_linear_121_1830" x1="961.09" y1="296.72" x2="961.09" y2="570.791" gradientUnits="userSpaceOnUse">
<stop stop-color="#333333"/>
<stop offset="1" stop-color="#333333" stop-opacity="0"/>
</linearGradient>
<linearGradient id="paint34_linear_121_1830" x1="961.09" y1="288.815" x2="961.09" y2="565.578" gradientUnits="userSpaceOnUse">
<stop stop-color="#333333"/>
<stop offset="1" stop-color="#333333" stop-opacity="0"/>
</linearGradient>
<linearGradient id="paint35_linear_121_1830" x1="961.077" y1="277.986" x2="961.077" y2="556.793" gradientUnits="userSpaceOnUse">
<stop stop-color="#333333"/>
<stop offset="1" stop-color="#333333" stop-opacity="0"/>
</linearGradient>
<linearGradient id="paint36_linear_121_1830" x1="961.09" y1="263.212" x2="961.09" y2="548.099" gradientUnits="userSpaceOnUse">
<stop stop-color="#333333"/>
<stop offset="1" stop-color="#333333" stop-opacity="0"/>
</linearGradient>
<linearGradient id="paint37_linear_121_1830" x1="961.116" y1="229.458" x2="961.116" y2="539.043" gradientUnits="userSpaceOnUse">
<stop stop-color="#333333"/>
<stop offset="1" stop-color="#333333" stop-opacity="0"/>
</linearGradient>
<linearGradient id="paint38_linear_121_1830" x1="961.09" y1="190.875" x2="961.09" y2="528.449" gradientUnits="userSpaceOnUse">
<stop stop-color="#333333"/>
<stop offset="1" stop-color="#333333" stop-opacity="0"/>
</linearGradient>
<linearGradient id="paint39_linear_121_1830" x1="961.09" y1="152.999" x2="961.09" y2="516.001" gradientUnits="userSpaceOnUse">
<stop stop-color="#333333"/>
<stop offset="1" stop-color="#333333" stop-opacity="0"/>
</linearGradient>
<linearGradient id="paint40_linear_121_1830" x1="961.077" y1="116.959" x2="961.077" y2="499.52" gradientUnits="userSpaceOnUse">
<stop stop-color="#333333"/>
<stop offset="1" stop-color="#333333" stop-opacity="0"/>
</linearGradient>
<linearGradient id="paint41_linear_121_1830" x1="961.077" y1="83.3057" x2="961.077" y2="472.19" gradientUnits="userSpaceOnUse">
<stop stop-color="#333333"/>
<stop offset="1" stop-color="#333333" stop-opacity="0"/>
</linearGradient>
<linearGradient id="paint42_linear_121_1830" x1="961.09" y1="66.1204" x2="961.09" y2="435.68" gradientUnits="userSpaceOnUse">
<stop stop-color="#333333"/>
<stop offset="1" stop-color="#333333" stop-opacity="0"/>
</linearGradient>
<linearGradient id="paint43_linear_121_1830" x1="961.09" y1="51.8273" x2="961.09" y2="398.329" gradientUnits="userSpaceOnUse">
<stop stop-color="#333333"/>
<stop offset="1" stop-color="#333333" stop-opacity="0"/>
</linearGradient>
<linearGradient id="paint44_linear_121_1830" x1="961.09" y1="38.4735" x2="961.09" y2="360.824" gradientUnits="userSpaceOnUse">
<stop stop-color="#333333"/>
<stop offset="1" stop-color="#333333" stop-opacity="0"/>
</linearGradient>
<linearGradient id="paint45_linear_121_1830" x1="961.103" y1="27.8199" x2="961.103" y2="323.218" gradientUnits="userSpaceOnUse">
<stop stop-color="#333333"/>
<stop offset="1" stop-color="#333333" stop-opacity="0"/>
</linearGradient>
<linearGradient id="paint46_linear_121_1830" x1="961.077" y1="18.979" x2="961.077" y2="284.678" gradientUnits="userSpaceOnUse">
<stop stop-color="#333333"/>
<stop offset="1" stop-color="#333333" stop-opacity="0"/>
</linearGradient>
<linearGradient id="paint47_linear_121_1830" x1="961.103" y1="12.9813" x2="961.103" y2="246.357" gradientUnits="userSpaceOnUse">
<stop stop-color="#333333"/>
<stop offset="1" stop-color="#333333" stop-opacity="0"/>
</linearGradient>
<linearGradient id="paint48_linear_121_1830" x1="961.09" y1="7.97668" x2="961.09" y2="208.518" gradientUnits="userSpaceOnUse">
<stop stop-color="#333333"/>
<stop offset="1" stop-color="#333333" stop-opacity="0"/>
</linearGradient>
<linearGradient id="paint49_linear_121_1830" x1="961.09" y1="4.76111" x2="961.09" y2="166.645" gradientUnits="userSpaceOnUse">
<stop stop-color="#333333"/>
<stop offset="1" stop-color="#333333" stop-opacity="0"/>
</linearGradient>
<linearGradient id="paint50_linear_121_1830" x1="961.09" y1="2.68018" x2="961.09" y2="130.846" gradientUnits="userSpaceOnUse">
<stop stop-color="#333333"/>
<stop offset="1" stop-color="#333333" stop-opacity="0"/>
</linearGradient>
<linearGradient id="paint51_linear_121_1830" x1="961.09" y1="1.58337" x2="961.09" y2="96.1916" gradientUnits="userSpaceOnUse">
<stop stop-color="#333333"/>
<stop offset="1" stop-color="#333333" stop-opacity="0"/>
</linearGradient>
<linearGradient id="paint52_linear_121_1830" x1="961.09" y1="0.741699" x2="961.09" y2="62.7547" gradientUnits="userSpaceOnUse">
<stop stop-color="#333333"/>
<stop offset="1" stop-color="#333333" stop-opacity="0"/>
</linearGradient>
<linearGradient id="paint53_linear_121_1830" x1="961.09" y1="0.270386" x2="961.09" y2="30.3275" gradientUnits="userSpaceOnUse">
<stop stop-color="#333333"/>
<stop offset="1" stop-color="#333333" stop-opacity="0"/>
</linearGradient>
<linearGradient id="paint54_linear_121_1830" x1="961.09" y1="0" x2="961.09" y2="2.14196" gradientUnits="userSpaceOnUse">
<stop stop-color="#333333"/>
<stop offset="1" stop-color="#333333" stop-opacity="0"/>
</linearGradient>
</defs>
</svg>
