<svg width="22" height="21" viewBox="0 0 22 21" fill="none" xmlns="http://www.w3.org/2000/svg">
<g clip-path="url(#clip0_102_9714)">
<path d="M1.83729 3.26615C1.61265 3.53031 1.38735 3.79382 1.16798 4.05139C0.737154 3.61661 0.36166 3.23848 0 2.87419C0.916996 1.95587 1.85244 1.01977 2.77602 0.0955293C3.70026 1.02175 4.63505 1.95785 5.55072 2.8755C5.19302 3.23321 4.81489 3.61068 4.40382 4.02175C4.16601 3.75627 3.91041 3.47102 3.59025 3.11463V6.90449C5.31555 5.17656 7.08234 3.40844 8.8386 1.64955C8.37549 1.64955 7.85112 1.61727 7.33333 1.65943C6.88472 1.69566 6.57115 1.5481 6.27866 1.2174C5.92358 0.816214 5.51976 0.457848 5.08235 0.0276769C5.24769 0.0151604 5.33794 0.00264397 5.42885 0.00264397C9.82148 0.0019852 14.2141 8.91916e-06 18.6067 0.00264397C20.0086 0.00330273 21.0079 0.980246 21.0099 2.37353C21.0171 6.78921 21.0125 11.2042 21.0125 15.6199C21.0125 15.6812 21.0059 15.7431 20.9209 15.863C20.5231 15.4466 20.143 15.0112 19.72 14.6219C19.4453 14.3689 19.3347 14.1054 19.357 13.7339C19.3887 13.2141 19.365 12.691 19.365 12.1746C17.6008 13.9407 15.8544 15.6884 14.112 17.4328H17.9091C17.554 17.143 17.2615 16.9045 16.9743 16.67C17.4453 16.2167 17.8287 15.8478 18.2016 15.4882C19.0837 16.3801 20.0152 17.3215 20.9401 18.2563C20.0441 19.1456 19.1047 20.0784 18.1752 21.0007C17.8261 20.6449 17.4545 20.2668 17.0586 19.8636C17.2813 19.6673 17.5349 19.4434 17.7885 19.2194C17.7727 19.1805 17.7569 19.1416 17.7404 19.1034H17.3775C13.0507 19.1034 8.72398 19.1048 4.39723 19.1028C3.21278 19.1028 2.35903 18.5283 2.03294 17.4835C1.94335 17.1963 1.91765 16.8801 1.917 16.5764C1.90975 12.2708 1.91238 7.9651 1.91238 3.65943C1.91238 3.54349 1.91238 3.42689 1.91238 3.31094C1.88669 3.29579 1.861 3.2813 1.83531 3.26615H1.83729ZM3.56258 16.1831C8.40975 11.3353 13.249 6.49474 18.0935 1.64955C17.4032 1.64955 16.6937 1.64362 15.9842 1.65679C15.8933 1.65877 15.7879 1.74177 15.7154 1.81424C11.7167 5.80897 7.72003 9.80633 3.72596 13.8063C3.65415 13.8788 3.57115 13.9842 3.56917 14.0751C3.55599 14.7839 3.56192 15.4928 3.56192 16.1825L3.56258 16.1831ZM19.365 2.95785C14.5296 7.79184 9.69499 12.6258 4.86693 17.4526C5.52569 17.4526 6.22464 17.4585 6.92358 17.4453C7.01449 17.4434 7.11858 17.3571 7.19104 17.2839C11.1963 13.2826 15.1996 9.27867 19.1996 5.27274C19.2721 5.20027 19.3557 5.09487 19.357 5.00396C19.3702 4.30567 19.3643 3.60673 19.3643 2.95785H19.365ZM19.365 7.58762C16.0758 10.8742 12.7833 14.164 9.49144 17.4526C10.1588 17.4526 10.857 17.4585 11.556 17.4453C11.6462 17.4434 11.749 17.3531 11.8221 17.28C14.2846 14.8221 16.7444 12.3617 19.2016 9.89856C19.2734 9.8261 19.3557 9.72004 19.3577 9.62847C19.3709 8.92952 19.365 8.23058 19.365 7.58697V7.58762ZM3.56258 11.5231C6.861 8.22596 10.1462 4.94138 13.4387 1.64955C12.7793 1.64955 12.1028 1.64362 11.4262 1.65614C11.334 1.65811 11.2266 1.73519 11.1548 1.80633C8.67589 4.27998 6.20026 6.75627 3.72727 9.23519C3.65547 9.30765 3.5718 9.41239 3.56983 9.50396C3.55665 10.1818 3.56258 10.8597 3.56258 11.5231Z" fill="#999999"/>
</g>
<defs>
<clipPath id="clip0_102_9714">
<rect width="21.0145" height="21" fill="white"/>
</clipPath>
</defs>
</svg>
