<svg width="22" height="21" viewBox="0 0 22 21" fill="none" xmlns="http://www.w3.org/2000/svg">
<g clip-path="url(#clip0_102_9695)">
<path d="M1.27043 13.7616H11.111V15.5697H17.2625V13.7655H19.7064C19.8646 15.9158 19.8771 17.8304 17.6716 19.2897C17.6447 19.3075 17.623 19.3318 17.5633 19.385C17.8345 19.6103 18.1018 19.8329 18.3665 20.0529C18.0092 20.3945 17.7222 20.669 17.3932 20.9842C17.1029 20.6848 16.7889 20.3373 16.4467 20.0207C16.3462 19.9275 16.1683 19.8894 16.0224 19.8802C15.784 19.8657 15.5423 19.9045 15.302 19.9052C12.1067 19.9071 8.91145 19.9065 5.71554 19.9065C5.56251 19.9065 5.39897 19.936 5.25777 19.8933C4.83151 19.7653 4.56092 19.9629 4.3074 20.2684C4.09132 20.5284 3.84502 20.7629 3.61975 21.0007C3.31566 20.6808 3.04046 20.3918 2.73572 20.0707C2.93998 19.89 3.19941 19.6602 3.49102 19.4014C3.29004 19.2576 3.13964 19.1577 2.99712 19.0474C1.92919 18.2244 1.35187 17.1329 1.27634 15.7924C1.23891 15.1284 1.26977 14.4604 1.26977 13.7616H1.27043Z" fill="#999999"/>
<path d="M1.27554 8.78712C1.27029 8.66825 1.26109 8.56119 1.26109 8.45413C1.26044 6.71366 1.25847 4.97384 1.26109 3.23336C1.26372 1.32081 2.59108 -0.0137781 4.50101 1.43622e-05C5.14203 0.00461185 5.80275 -0.00852383 6.41882 0.136625C7.5117 0.394741 8.20001 1.15267 8.53235 2.2206C8.59671 2.42814 8.68012 2.52863 8.90803 2.59037C10.194 2.93912 11.0964 4.14104 11.1128 5.48219C11.1155 5.69827 11.1128 5.91435 11.1128 6.14882H5.02578C4.73548 4.61392 5.56959 3.02976 7.31335 2.5352C7.15573 1.85017 6.48121 1.2722 5.7732 1.24725C5.23792 1.2282 4.70067 1.22623 4.16539 1.24725C3.24261 1.28337 2.50044 2.13062 2.4965 3.14666C2.48994 4.89765 2.49453 6.64929 2.49453 8.40028C2.49453 8.51981 2.49453 8.63935 2.49453 8.78647H1.27423L1.27554 8.78712Z" fill="#999999"/>
<path d="M11.0936 12.5327C10.9648 12.5327 10.8683 12.5327 10.7718 12.5327C7.64415 12.5327 4.51589 12.5334 1.38828 12.5321C0.715079 12.5321 0.231029 12.2135 0.0609225 11.6697C-0.195223 10.8514 0.384717 10.0632 1.26875 10.0514C2.20926 10.0389 3.14978 10.0481 4.09029 10.0481C6.29971 10.0481 8.50847 10.0481 10.7179 10.0481C10.8361 10.0481 10.9543 10.0481 11.0936 10.0481V12.5321V12.5327Z" fill="#999999"/>
<path d="M16.0227 14.3711H12.3625C12.3565 14.2555 12.3467 14.1504 12.3467 14.0453C12.3454 12.7771 12.3454 11.5082 12.3467 10.2399C12.3473 9.32239 12.8485 8.81798 13.7621 8.81404C14.101 8.81272 14.4399 8.8055 14.7788 8.81601C15.54 8.84031 16.0372 9.35194 16.0391 10.1151C16.0431 11.4385 16.0404 12.7613 16.0391 14.0847C16.0391 14.1708 16.0299 14.2561 16.0227 14.3711Z" fill="#999999"/>
<path d="M17.2832 12.5209V10.0481C17.8782 10.0481 18.4648 10.0462 19.0506 10.0488C19.356 10.0501 19.668 10.0251 19.9668 10.0744C20.619 10.1821 21.0433 10.7161 21.0164 11.3394C20.9901 11.9508 20.5389 12.4756 19.8985 12.5091C19.0394 12.5544 18.1764 12.5203 17.2839 12.5203L17.2832 12.5209Z" fill="#999999"/>
</g>
<defs>
<clipPath id="clip0_102_9695">
<rect width="21.0171" height="21" fill="white"/>
</clipPath>
</defs>
</svg>
