<svg width="34" height="34" viewBox="0 0 34 34" fill="none" xmlns="http://www.w3.org/2000/svg">
<path fill-rule="evenodd" clip-rule="evenodd" d="M18.3647 3.23814C18.1922 3.0068 17.933 2.85558 17.6468 2.81925C17.3605 2.78292 17.0717 2.86459 16.8469 3.0455C14.1975 5.17733 12.3496 8.2701 11.8337 11.7956C10.9036 11.1214 10.0867 10.2998 9.41743 9.36525C9.23332 9.10815 8.94427 8.94641 8.62884 8.92401C8.31342 8.90161 8.00441 9.02086 7.78581 9.24936C5.5965 11.5379 4.25 14.6438 4.25 18.0619C4.25 25.1036 9.95837 30.8119 17 30.8119C24.0416 30.8119 29.75 25.1036 29.75 18.0619C29.75 12.8757 26.6536 8.41492 22.213 6.42319C20.6417 5.65607 19.3441 4.55146 18.3647 3.23814ZM22.3125 20.1875C22.3125 23.1215 19.934 25.5 17 25.5C14.066 25.5 11.6875 23.1215 11.6875 20.1875C11.6875 19.6076 11.7804 19.0494 11.9522 18.527C12.8425 19.1852 13.8659 19.6737 14.9746 19.9447C15.2804 17.9603 16.2726 16.2023 17.7011 14.9209C20.3037 15.264 22.3125 17.4912 22.3125 20.1875Z" fill="#A685FA"/>
</svg>
