<svg width="1559" height="1040" viewBox="0 0 1559 1040" fill="none" xmlns="http://www.w3.org/2000/svg">
<g style="mix-blend-mode:color-dodge">
<path d="M0 1039.89C519.467 1037.69 1039.06 1036.71 1558.52 1039.89" stroke="#4D4D4D" stroke-miterlimit="10"/>
<path d="M0 1019.17C150.387 1009.11 303.081 1005.68 453.676 1013.62C515.186 1016.86 576.862 1018.46 638.392 1015.06C705.492 1011.34 769.371 996.497 835.577 987.436C953.318 971.309 1072.7 1009.2 1189.94 1015.51C1313.44 1022.18 1434.72 1004.85 1558.52 1020.65" stroke="#4D4D4D" stroke-miterlimit="10"/>
<path d="M0 996.019C156.206 978.749 318.105 975.59 474.685 991.094C537.462 997.308 600.759 1000.59 663.641 994.004C737.847 986.252 802.245 957.697 873.647 940.261C992.905 911.145 1110.65 981.846 1227.72 993.339C1279.11 998.389 1329.98 987.353 1381.25 984.049C1441.86 980.121 1499.7 986.376 1558.52 1001.4" stroke="#4D4D4D" stroke-miterlimit="10"/>
<path d="M0 970.915C161.006 947.576 326.542 950.444 487.673 972.078C551.073 980.578 614.516 985.254 678.062 975.403C711.124 970.27 743.375 961.646 774.919 950.527C817.81 935.418 857.355 907.653 899.892 893.771C1019.28 854.804 1132.57 954.226 1245.78 971.995C1297.73 980.142 1345.13 963.246 1396.31 957.406C1453.31 950.901 1505.22 962.04 1558.55 982.178" stroke="#4D4D4D" stroke-miterlimit="10"/>
<path d="M0 944.23C157.619 916.611 318.646 925.256 475.703 953.208C543.863 965.345 612.126 973.346 680.701 959.422C767.771 941.736 831.982 889.386 911.695 855.926C1040.97 801.664 1143.92 933.299 1264.5 953.312C1312.11 961.209 1351.37 941.05 1396.94 932.26C1455.43 920.975 1505.97 937.58 1558.52 962.955" stroke="#4D4D4D" stroke-miterlimit="10"/>
<path d="M0 916.403C157.743 884.024 312.474 903.185 467.89 938.245C536.257 953.665 604.811 962.103 673.781 945.041C709.586 936.187 743.416 921.744 776.083 904.785C824.979 879.41 868.244 837.015 917.306 814.341C1049.18 753.387 1143.27 907.092 1260.58 932.613C1313.96 944.23 1349.47 918.71 1398.7 906.178C1457.22 891.298 1508.24 915.301 1558.52 943.711" stroke="#4D4D4D" stroke-miterlimit="10"/>
<path d="M0 887.869C154.626 851.147 296.452 881.8 446.278 922.596C515.851 941.528 585.382 952.979 656.222 933.34C693.71 922.949 728.6 905.825 762.098 886.31C814.589 855.739 859.869 807.005 912.714 779.282C1051.51 706.481 1133.82 884.98 1253.76 913.41C1310.14 926.773 1343.16 896.14 1393.36 880.325C1454.12 861.184 1508.13 892.981 1558.5 924.466" stroke="#4D4D4D" stroke-miterlimit="10"/>
<path d="M0 859.023C147.665 818.331 273.074 858.524 413.009 904.536C482.415 927.355 551.635 944.438 623.971 925.734C734.024 897.283 805.757 810.704 898.25 752.369C1048.45 657.664 1115.38 868.562 1246.42 895.413C1303.16 907.051 1335.24 870.869 1385.38 853.391C1448.89 831.258 1507.51 871.118 1558.52 905.18" stroke="#4D4D4D" stroke-miterlimit="10"/>
<path d="M0 830.323C143.28 784.041 253.291 836.059 384.872 887.619C455.92 915.447 527.779 938.016 603.481 915.01C715.716 880.907 788.863 788.01 881.647 723.398C1039.39 613.564 1091.17 848.258 1226.66 875.857C1284.33 887.599 1319.92 847.447 1369.3 827.85C1439.04 800.168 1503.06 847.281 1558.52 885.998" stroke="#4D4D4D" stroke-miterlimit="10"/>
<path d="M0 802.142C64.1904 777.681 126.843 772.049 193.236 791.793C254.538 810.019 307.175 846.824 365.027 872.864C433.353 903.622 503.549 930.597 578.317 906.095C697.076 867.17 768.56 761.471 865.48 691.352C1022.41 577.798 1068.07 819.848 1196.91 852.497C1262.13 869.019 1299.93 821.116 1355.4 799.212C1430.35 769.597 1500.38 824.878 1558.52 866.754" stroke="#4D4D4D" stroke-miterlimit="10"/>
<path d="M0 774.938C57.7693 748.773 115.331 740.627 176.342 761.076C236.439 781.214 285.252 823.61 340.61 852.955C405.009 887.1 471.277 921.37 545.38 899.507C669.625 862.889 747.614 744.18 844.035 667.369C1008.45 536.379 1035.73 799.794 1170.43 830.115C1239.55 845.681 1282.58 790.13 1341.93 768.475C1421.77 739.359 1498.34 802.973 1558.5 847.489" stroke="#4D4D4D" stroke-miterlimit="10"/>
<path d="M0 749.106C133.514 677.407 213.705 762.219 322.448 830.759C384.207 869.684 450.705 914.719 526.386 889.656C648.949 849.068 729.577 727.035 822.485 645.881C882.457 593.509 939.873 581.352 991.242 647.605C1035.8 705.048 1064.41 787.782 1143.69 804.428C1212.72 818.913 1261.47 762.053 1320.69 738.881C1407.85 704.757 1494.13 779.365 1558.52 828.265" stroke="#4D4D4D" stroke-miterlimit="10"/>
<path d="M0 725.082C129.316 643.802 209.902 728.199 311.892 804.802C366.295 845.66 427.888 902.25 501.388 883.068C546.128 871.388 585.797 838.199 619.96 808.896C685.626 752.597 740.133 686.177 802.474 626.698C862.238 569.672 921.15 547.227 972.395 622.459C1010.59 678.529 1039.89 765.15 1116.67 777.39C1189.67 789.028 1243.1 726.391 1307.12 704.736C1399.47 673.479 1492.57 757.481 1558.52 808.979" stroke="#4D4D4D" stroke-miterlimit="10"/>
<path d="M0 703.302C50.4131 667.037 106.042 644.28 167.469 666.372C222.162 686.053 264.679 731.773 306.718 769.867C354.097 812.803 413.944 889.032 486.675 874.048C527.613 865.611 563.625 834.271 594.213 807.587C661.729 748.669 720.911 680.421 781.61 614.769C838.424 553.296 901.388 509.071 954.378 594.632C990.058 652.219 1017.76 743.308 1098.68 746.508C1170.49 749.355 1224.46 691.996 1289.19 670.84C1388.48 638.399 1489.2 733.748 1558.55 789.756" stroke="#4D4D4D" stroke-miterlimit="10"/>
<path d="M0 683.309C51.743 642.992 109.388 616.224 174.742 639.459C229.893 659.057 275.568 703.738 316.339 743.91C358.731 785.703 415.627 867.793 485.034 853.786C523.872 845.951 558.035 814.549 586.67 789.07C652.149 730.776 710.625 664.314 769.786 599.827C823.961 540.785 887.59 486.959 941.328 572.124C976.488 627.842 1003.19 716.769 1082.59 717.87C1153.79 718.847 1213.16 667.162 1279.63 649.455C1383.1 621.877 1484.21 712.28 1558.52 770.034" stroke="#4D4D4D" stroke-miterlimit="10"/>
<path d="M0 661.031C57.0836 616.12 117.991 591.971 187.771 623.145C245.478 648.936 296.016 697.732 340.673 740.938C380.737 779.718 430.381 845.161 493.554 824.774C532.101 812.325 565.62 779.074 594.38 752.348C652.024 698.792 705.596 640.789 759.978 583.97C811.804 529.791 874.686 477.087 930.398 552.631C970.026 606.374 995.253 692.329 1074.36 696.257C1144.83 699.748 1212.97 653.258 1280.9 640.789C1383.64 621.919 1479.19 692.744 1558.55 747.319" stroke="#4D4D4D" stroke-miterlimit="10"/>
<path d="M0 636.279C61.3851 589.436 123.934 568.841 195.647 605.833C250.59 634.159 301.294 679.776 346.491 721.403C388.613 760.204 440.335 827.06 503.985 797.466C537.213 782.025 564.56 752.618 590.66 727.742C645.562 675.37 697.492 619.84 751.105 566.181C806.568 510.671 869.407 467.631 926.948 541.429C966.555 592.242 995.087 672.232 1070.19 675.558C1139.28 678.633 1207.92 645.527 1275.35 634.513C1379.44 617.513 1471.85 670.591 1558.55 721.736" stroke="#4D4D4D" stroke-miterlimit="10"/>
<path d="M0 609.512C70.7986 558.429 138.335 546.874 213.726 594.403C267.9 628.548 317.981 674.809 366.461 716.519C406.941 751.35 452.471 806.028 509.118 774.356C539.457 757.398 564.705 727.16 588.873 702.699C640.325 650.598 690.426 597.229 743.375 546.625C798.235 494.191 861.033 456.347 919.426 522.6C963.023 572.062 993.217 650.951 1068.13 658.101C1134.15 664.398 1206.09 638.586 1271.03 628.527C1374.81 612.463 1466.11 649.143 1558.5 693.929" stroke="#4D4D4D" stroke-miterlimit="10"/>
<path d="M0 581.227C76.7002 529.625 147.229 524.097 224.095 578.089C282.093 618.822 334.21 670.3 389.361 714.94C427.285 745.614 469.241 787.678 516.64 752.431C547.977 729.134 573.558 694.033 599.575 665.437C643.567 617.118 688.66 569.444 737.057 525.51C796.364 471.663 860.68 446.226 920.402 511.129C964.124 558.637 997.622 632.788 1069.46 640.83C1137.45 648.437 1210.97 630.585 1278.32 621.337C1377.36 607.745 1465.51 629.878 1558.52 664.314" stroke="#4D4D4D" stroke-miterlimit="10"/>
<path d="M0 551.862C87.4436 497.184 161.775 503.003 242.049 567.095C302.956 615.726 354.866 672.316 418.35 718.203C461.905 749.667 493.304 767.436 533.057 723.585C600.614 649.06 655.328 564.123 734.481 499.865C792.582 452.71 856.503 435.128 914.397 490.014C963.314 536.379 996.23 607.558 1066.84 624.267C1132.03 639.667 1213.84 624.475 1279.38 615.538C1376.11 602.342 1463.41 610.094 1558.55 633.536" stroke="#4D4D4D" stroke-miterlimit="10"/>
<path d="M0 521.915C97.9169 464.784 177.651 483.343 260.211 556.475C319.352 608.867 368.539 669.531 435.66 712.571C484.93 744.18 510.864 749.771 544.569 699.436C597.975 619.695 651.733 538.187 729.535 479.373C792.437 431.803 856.17 421.121 917.639 475.965C968.82 521.644 1005.25 595.13 1077.63 611.299C1141.82 625.639 1216.73 618.822 1281.44 610.01C1375.39 597.209 1463.64 591.431 1558.55 602.009" stroke="#4D4D4D" stroke-miterlimit="10"/>
<path d="M0 491.863C106.728 432.946 190.223 461.979 274.82 542.593C334.688 599.64 384.041 669.323 457.749 709.765C512.464 739.795 531.665 724.188 557.765 672.71C599.284 590.849 651.796 508.115 728.704 454.788C793.809 409.628 859.661 408.236 920.818 460.129C974.161 505.414 1013.02 576.987 1084.48 597.063C1237.76 640.124 1404.56 575.761 1558.55 570.42" stroke="#4D4D4D" stroke-miterlimit="10"/>
<path d="M0 462.166C53.0937 433.881 103.008 417.089 162.419 437.684C211.565 454.726 251.816 490.492 287.87 526.923C347.343 587.067 398.193 667.993 477.428 703.738C536.86 730.547 550.928 694.428 570.981 644.031C603.669 561.816 653.022 477.586 730.138 429.454C898.209 324.525 958.867 536.836 1092.59 582.869C1248.75 636.632 1405.83 568.799 1558.55 539.226" stroke="#4D4D4D" stroke-miterlimit="10"/>
<path d="M0 433.299C55.3796 403.996 106.416 387.661 166.908 409.919C217.653 428.582 258.674 466.717 295.434 505.351C353.245 566.098 413.03 671.256 499.268 695.446C559.635 712.384 569.152 655.898 584.447 610.426C611.212 530.83 657.344 443.067 734.522 400.962C894.739 313.552 975.429 510.089 1096.39 565.64C1255.09 638.524 1408.76 563.791 1558.52 508.967" stroke="#4D4D4D" stroke-miterlimit="10"/>
<path d="M0 405.763C55.9199 375.337 106.291 358.816 167.843 380.367C218.879 398.239 260.585 438.121 296.868 476.983C355.738 540.057 418.848 659.867 510.386 677.74C572.602 689.897 581.33 627.738 594.92 581.061C618.256 500.987 660.274 412.351 740.923 375.109C901.368 301.02 987.897 489.702 1106.24 550.719C1167.85 582.474 1247.63 598.746 1316.27 587.69C1403.27 573.683 1482.84 522.122 1558.55 480.288" stroke="#4D4D4D" stroke-miterlimit="10"/>
<path d="M0 379.993C59.5564 345.557 117.118 325.71 183.054 355.47C232.532 377.811 271.786 418.876 307.258 458.737C360.414 518.465 427.41 644.301 516.828 653.736C584.135 660.844 592.634 587.337 607.056 537.709C629.353 461.002 669.501 378.767 750.315 349.173C909.555 290.837 1001.63 465.761 1116.53 534.114C1174.59 568.654 1250.48 592.304 1318.39 583.846C1409.36 572.498 1488.1 506.66 1558.5 453.562" stroke="#4D4D4D" stroke-miterlimit="10"/>
<path d="M0 356.488C56.2316 320.66 111.59 295.721 178.025 322.551C231.264 344.06 273.656 389.719 310.229 432.385C362.513 493.381 428.262 618.614 521.15 620.817C587.377 622.376 599.637 547.809 615.264 498.015C639.431 421.079 677.647 346.45 762.409 324.691C924.725 283.002 1014.85 442.942 1130.99 519.67C1187.85 557.244 1263.67 588.231 1332.93 578.234C1423.51 565.142 1496.29 489.848 1558.52 429.454" stroke="#4D4D4D" stroke-miterlimit="10"/>
<path d="M0 335.727C51.6183 298.298 105.232 266.937 170.877 288.925C222.038 306.049 262.331 347.988 296.764 387.765C353.162 452.897 409.892 568.758 506.978 576.156C580.789 581.767 599.97 510.027 621.207 453.271C650.175 375.836 690.551 310.268 779.262 298.277C936.528 277.017 1027.15 412.247 1136.41 497.371C1191.19 540.037 1265.36 580.894 1337.03 573.912C1432.1 564.643 1502.06 476.235 1558.52 408.464" stroke="#4D4D4D" stroke-miterlimit="10"/>
<path d="M0 319.35C51.369 283.501 104.338 253.99 168.674 274.939C218.775 291.253 258.653 331.342 292.67 369.913C347.468 432.011 405.466 551.217 499.767 554.48C572.685 556.995 597.642 492.404 623.784 435.627C657.303 362.868 702.666 296.261 788.697 284.644C940.455 264.153 1035.26 390.488 1142.96 471.289C1195.8 510.921 1270.34 551.238 1338.21 549.908C1433.09 548.038 1503.37 457.781 1558.52 391.901" stroke="#4D4D4D" stroke-miterlimit="10"/>
<path d="M0 308.149C50.5585 273.546 102.759 244.846 165.827 263.924C214.557 278.659 253.852 316.191 287.33 352.934C341.255 412.143 399.003 530.103 490.249 530.664C561.796 531.1 592.26 474.157 623.493 418.689C661.646 350.939 711.726 285.932 794.702 274.544C940.975 254.489 1039.79 367.794 1147.55 443.212C1199.88 479.831 1273.61 520.688 1338.36 526.466C1432.76 534.883 1504.18 443.732 1558.5 380.221" stroke="#4D4D4D" stroke-miterlimit="10"/>
<path d="M0 301.207C48.5013 268.06 100.348 239.401 160.923 254.78C212.562 267.873 253.582 306.922 288.743 344.725C342.19 402.188 395.782 508.926 485.075 504.956C552.632 501.964 587.065 450.673 622.35 400.193C665.677 338.179 717.981 280.03 797.32 268.766C941.39 248.296 1042.32 346.242 1154.41 416.112C1206.19 448.408 1271.9 486.709 1331.56 502.151C1428.27 527.172 1501.92 436.541 1558.52 372.532" stroke="#4D4D4D" stroke-miterlimit="10"/>
<path d="M0 297.633C47.1713 264.984 97.9169 235.702 157.494 247.818C207.097 257.918 247.411 292.666 281.968 327.559C336.163 382.258 386.618 480.496 473.126 476.651C538.751 473.741 578.213 430.556 618.36 384.024C666.467 328.287 721.992 275.333 798.276 264.236C936.258 244.16 1041.99 322.468 1155.39 384.773C1211.66 415.697 1270.84 453.499 1329.92 478.521C1425.03 518.818 1499.8 431.616 1558.5 368.001" stroke="#4D4D4D" stroke-miterlimit="10"/>
<path d="M0 296.531C99.2468 226.163 185.09 226.516 275.215 309.957C330.553 361.185 377.579 449.114 461.053 446.122C524.537 443.836 568.674 408.838 613.414 367.752C666.134 319.35 724.215 272.528 797.466 261.638C928.943 242.082 1040.26 298.713 1154.68 352.435C1217.66 382.009 1268.62 419.105 1327.28 455.079C1419.92 511.877 1495.54 430.784 1558.55 365.84" stroke="#4D4D4D" stroke-miterlimit="10"/>
<path d="M0 297.009C92.3686 229.342 177.381 216.208 268.856 291.523C325.649 338.283 369.391 414.886 449.478 413.307C582.826 410.688 664.95 280.072 795.284 260.37C920.132 241.5 1037.42 274.959 1152.25 319.288C1222.44 346.388 1266.64 384.773 1323.58 431.595C1412.9 505.039 1488.81 433.195 1558.52 365.092" stroke="#4D4D4D" stroke-miterlimit="10"/>
<path d="M0 298.173C84.472 233.79 168.819 206.523 261.084 270.304C318.126 309.728 359.957 375.608 433.665 378.143C566.202 382.736 664.825 278.908 792.021 259.061C908.08 240.96 1032.12 250.997 1144.08 284.581C1223.8 308.502 1264.5 351.999 1320.69 410.065C1341.68 431.761 1365.29 454.351 1396.81 457.76C1459.53 464.514 1518.19 402.354 1558.52 365.029" stroke="#4D4D4D" stroke-miterlimit="10"/>
<path d="M0 299.129C78.5912 236.824 162.544 197.234 256.866 249.397C315.217 281.672 355.801 336.454 425.394 340.506C554.876 348.05 663.952 278.659 788.51 259.31C900.245 241.957 1026.86 227.493 1138.45 251.434C1224.29 269.847 1262.9 321.2 1314.94 386.83C1334.87 411.976 1357.43 440.905 1390.37 448.803C1454 464.057 1516.78 401.357 1558.5 364.801" stroke="#4D4D4D" stroke-miterlimit="10"/>
<path d="M0 298.963C76.7002 235.785 161.941 186.884 260.689 229.031C314.531 252.016 354.596 294.141 414.505 300.002C543.26 312.617 660.337 278.388 786.057 259.934C852.305 250.208 917.576 240.565 983.263 227.326C1034.32 217.039 1083.94 211.698 1135.85 219.138C1225.54 231.982 1263.42 296.074 1309.93 365.902C1328.55 393.854 1350.93 428.561 1384.76 439.679C1449.59 461.002 1514.26 400.318 1558.52 363.471" stroke="#4D4D4D" stroke-miterlimit="10"/>
<path d="M0 296.802C73.8741 233.998 159.157 175.807 260.128 202.72C313.658 216.998 356.861 250.208 412.489 257.232C539.395 273.234 656.97 276.871 783.772 259.206C850.913 249.854 913.857 236.076 977.901 213.88C1027.21 196.797 1074.53 182.79 1127.4 186.531C1221.53 193.181 1259.77 268.891 1302.26 342.418C1320.36 373.737 1342.22 414.034 1377.3 429.267C1443.38 457.968 1511.48 397.658 1558.57 360.312" stroke="#4D4D4D" stroke-miterlimit="10"/>
<path d="M0 291.751C72.835 228.366 157.785 163.629 259.962 173.438C314.822 178.696 365.027 204.632 419.492 212.654C543.987 231.005 653.5 272.881 781.382 257.274C849.043 249.002 909.846 231.337 970.815 201.12C1016.74 178.364 1060.5 155.337 1113.12 154.672C1215.4 153.425 1254.03 242.768 1295.22 321.574C1313 355.615 1334.39 399.902 1370.63 418.149C1437.87 452.024 1508.78 392.358 1558.52 354.389" stroke="#4D4D4D" stroke-miterlimit="10"/>
<path d="M0 282.919C74.3312 217.476 159.51 148.52 262.684 141.704C318.313 138.025 376.872 154.568 431.005 165.79C552.757 191.02 654.123 267.769 783.418 253.803C849.895 246.633 908.599 224.999 964.332 188.505C1009.3 159.057 1050.51 127.489 1106.34 124.226C1210.85 118.137 1249.13 221.902 1287.26 300.646C1305.38 338.033 1326.18 383.255 1363.54 405.389C1430.64 445.124 1508.01 382.341 1558.52 344.933" stroke="#4D4D4D" stroke-miterlimit="10"/>
<path d="M0 269.369C127.196 157.644 261.25 71.5014 434.413 113.357C557.682 143.159 652.627 259.061 786.369 248.13C854.134 242.581 911.217 215.377 962.773 172.295C1003.15 138.566 1039.12 101.573 1094.21 95.6088C1199.27 84.2409 1237.78 190.521 1273.79 269.161C1293.45 312.076 1314.73 365.757 1357.39 391.319C1426.17 432.53 1506.05 369.207 1558.5 331.051" stroke="#4D4D4D" stroke-miterlimit="10"/>
<path d="M0 250.956C122.396 146.38 279.849 30.7059 451.079 78.6713C571.272 112.338 662.082 240.544 794.183 233.769C860.243 230.382 916.371 198.73 963.002 153.882C999.991 118.324 1033.05 78.2141 1087.46 72.1872C1188.24 60.9856 1229.26 165.894 1264.77 240.482C1286.03 285.101 1308.31 339.717 1352.03 367.17C1422.04 411.125 1502.9 351.105 1558.5 312.367" stroke="#4D4D4D" stroke-miterlimit="10"/>
<path d="M0 231.712C122.833 131.583 284.088 21.0213 452.616 62.5442C576.488 93.0525 674.613 220.281 808.729 211.574C869.511 207.625 920.444 178.093 963.127 136.446C997.186 103.215 1027.05 65.3498 1076.77 57.224C1175.96 41.0138 1224.96 148.562 1263.44 219.886C1285.55 260.827 1309.53 308.273 1349.66 334.687C1419.84 380.886 1498.8 329.741 1558.52 291.294" stroke="#4D4D4D" stroke-miterlimit="10"/>
<path d="M0 212.467C125.16 115.871 294.27 9.05076 461.552 51.6128C583.179 82.5575 687.289 198.689 818.537 191.56C874.499 188.526 923.499 158.704 962.628 120.755C993.985 90.3508 1021.89 54.1274 1066.95 44.5884C1164.57 23.9308 1220.72 132.31 1263.24 199.977C1288.8 240.648 1315.52 285.413 1359.41 308.419C1428.86 344.808 1497.93 304.636 1558.52 268.662" stroke="#4D4D4D" stroke-miterlimit="10"/>
<path d="M0 193.223C129.171 99.6405 302.395 1.36139 469.511 42.7596C589.974 72.6029 698.51 180.13 827.743 171.298C879.798 167.744 924.288 141.579 961.485 106.603C992.759 77.1957 1020.85 41.3464 1065.53 33.0959C1158.36 15.9297 1218.83 117.7 1264.13 180.754C1290.13 216.935 1317.68 253.845 1357.31 275.77C1426.26 313.884 1495.75 278.991 1558.52 244.742" stroke="#4D4D4D" stroke-miterlimit="10"/>
<path d="M0 173.979C130.064 86.3814 297.886 1.81855 460.97 32.5555C587.19 56.3511 701.253 161.842 833.811 152.552C884.078 149.019 926.886 123.374 963.501 90.4132C993.445 63.4378 1020.65 32.3476 1062.14 24.5127C1148.05 8.28182 1212.01 95.9413 1259.23 153.217C1290.13 190.729 1323.89 231.899 1370.13 251.081C1435.5 278.201 1499.86 249.231 1558.55 219.845" stroke="#4D4D4D" stroke-miterlimit="10"/>
<path d="M0 154.734C133.306 72.3119 304.598 -3.31458 466.165 27.5886C589.33 51.1556 709.004 144.759 837.821 135.261C931.374 128.362 972.208 36.6496 1056.53 18.0703C1141.32 -0.592112 1210.35 81.9965 1262.47 135.448C1293.8 167.598 1326.51 201.37 1368.82 218.827C1434.32 245.844 1497.89 221.882 1558.5 194.241" stroke="#4D4D4D" stroke-miterlimit="10"/>
<path d="M0 135.49C136.818 58.9905 304.868 -3.10676 464.918 22.6424C589.081 42.6141 710.957 127.468 839.525 117.846C927.842 111.237 975.055 28.8355 1056.58 12.854C1136.06 -2.7119 1204.45 62.856 1259.04 110.759C1292.74 140.353 1327.43 171.402 1369.88 187.84C1434.9 213.028 1497.1 193.701 1558.55 168.284" stroke="#4D4D4D" stroke-miterlimit="10"/>
<path d="M0 116.246C138.875 47.4148 305.055 -3.41849 462.217 18.9847C586.462 36.6912 711.228 110.094 838.736 100.846C923.478 94.6944 978.296 23.2035 1058.32 8.65598C1137.27 -5.70454 1209.17 53.5456 1268.2 96.835C1300.27 120.34 1333.68 144.115 1371.5 157.498C1436.69 180.567 1496.18 165.354 1558.52 142.244" stroke="#4D4D4D" stroke-miterlimit="10"/>
<path d="M0 97.0011C140.35 36.9821 304.203 -3.21077 458.269 15.8257C582.722 31.2046 708.651 92.5745 835.473 84.1785C918.698 78.6712 982.328 18.8807 1062.62 5.85028C1136.73 -6.16185 1206.59 38.5615 1267.23 74.972C1365.79 134.16 1447.12 152.843 1558.52 116.37" stroke="#4D4D4D" stroke-miterlimit="10"/>
<path d="M0 77.7568C141.182 27.6093 296.598 -0.010304 446.943 12.6876C573.994 23.432 700.339 73.6003 828.699 67.1578C914.792 62.8351 988.562 11.8356 1073.3 3.19016C1143.31 -3.95893 1209.39 27.8587 1270.99 56.9538C1369.78 103.651 1451.21 121.275 1558.52 91.0366" stroke="#4D4D4D" stroke-miterlimit="10"/>
<path d="M0 58.5125C143.717 18.6522 297.159 0.0937074 446.382 10.6719C570.919 19.5043 695.933 56.6006 821.301 51.218C909.347 47.4356 991.513 9.98605 1078.87 2.29662C1152.39 -4.16665 1221.43 21.4786 1289.79 45.1288C1381.62 76.9048 1462.54 88.7299 1558.52 66.5345" stroke="#4D4D4D" stroke-miterlimit="10"/>
<path d="M0 39.2889C141.618 11.8564 288.327 1.02881 432.563 7.4713C558.16 13.0825 683.61 37.6887 809.56 34.3635C905.981 31.8281 1000.05 6.12046 1096.27 1.11194C1164.92 -2.4626 1231.3 13.3527 1297.73 28.7107C1386.21 49.1605 1468.23 58.6787 1558.52 43.1128" stroke="#4D4D4D" stroke-miterlimit="10"/>
<path d="M0 20.0446C140.496 5.49707 282.425 1.02889 423.649 4.20857C547.811 7.01417 671.911 19.3796 796.177 17.717C901.866 16.3038 1007.01 3.08633 1112.66 0.467772C1262.51 -3.25225 1408.22 36.234 1558.52 21.1045" stroke="#4D4D4D" stroke-miterlimit="10"/>
<path d="M0 0.800251C519.487 -2.0677 1039.04 3.93837 1558.52 0.800251" stroke="#4D4D4D" stroke-miterlimit="10"/>
</g>
</svg>
